<?xml version="1.0" standalone="no"?>
<!DOCTYPE svg PUBLIC "-//W3C//DTD SVG 20010904//EN"
 "http://www.w3.org/TR/2001/REC-SVG-20010904/DTD/svg10.dtd">
<svg version="1.0" xmlns="http://www.w3.org/2000/svg"
 width="1080.000000pt" height="1080.000000pt" viewBox="0 0 1080.000000 1080.000000"
 preserveAspectRatio="xMidYMid meet">
<metadata>
Created by potrace 1.14, written by Peter Selinger 2001-2017
</metadata>
<g transform="translate(0.000000,1080.000000) scale(0.100000,-0.100000)"
fill="#000000" stroke="none">
<path d="M0 5400 l0 -5400 5400 0 5400 0 0 5400 0 5400 -5400 0 -5400 0 0
-5400z m4630 3169 c336 -54 617 -199 848 -437 76 -78 159 -187 194 -257 36
-71 43 -75 96 -60 215 64 549 57 732 -15 114 -45 290 -148 290 -170 0 -4 -28
-24 -62 -43 -35 -20 -79 -48 -98 -63 -54 -44 -139 -134 -156 -166 -61 -117
-15 -290 105 -400 l56 -51 3 46 c2 26 5 47 8 47 9 0 91 -56 159 -108 79 -62
221 -202 280 -277 22 -27 43 -52 46 -55 4 -3 31 -43 61 -90 120 -185 204 -388
249 -600 17 -83 23 -153 28 -333 l6 -228 80 -34 c194 -85 385 -241 486 -400
22 -33 39 -65 39 -71 0 -6 -28 -17 -62 -24 -144 -29 -314 -106 -418 -189 -50
-40 -125 -118 -153 -160 -24 -35 -75 -146 -83 -179 -4 -15 -34 -101 -66 -192
-62 -171 -144 -347 -219 -466 -102 -164 -274 -355 -424 -472 -44 -34 -85 -67
-92 -72 -7 -6 -14 -10 -16 -10 -2 0 -33 -19 -69 -43 -58 -38 -274 -149 -368
-190 -231 -99 -647 -214 -740 -203 -106 12 -423 94 -507 132 -17 8 -36 14 -41
14 -37 0 -461 201 -470 223 -2 4 -8 7 -13 7 -18 0 -186 121 -265 189 -83 73
-219 216 -276 291 -135 179 -235 384 -345 705 -87 252 -140 334 -287 442 -105
77 -239 138 -373 168 -46 10 -83 24 -83 29 0 31 195 230 290 297 19 13 41 30
48 36 29 27 162 99 257 139 l100 42 8 49 c31 190 84 338 212 598 52 105 101
218 109 251 35 139 11 265 -66 343 -62 64 -117 86 -215 86 -46 0 -83 3 -83 7
0 19 94 119 160 170 90 69 193 121 296 148 95 24 283 27 389 5 134 -29 142
-29 153 -9 20 38 52 147 68 235 23 125 15 352 -15 459 -74 256 -263 480 -544
642 -76 44 -87 54 -81 72 15 46 88 114 154 142 55 24 177 55 249 64 86 11 335
5 431 -11z"/>
<path d="M4278 8345 c-15 -15 -8 -27 56 -93 384 -403 450 -921 186 -1457 -33
-66 -70 -133 -83 -149 l-24 -30 -51 37 c-123 88 -235 122 -373 114 -72 -5
-159 -26 -159 -39 0 -2 18 -23 39 -46 156 -167 149 -478 -19 -812 -132 -262
-197 -472 -203 -654 l-2 -80 -65 -16 c-86 -22 -207 -71 -300 -122 -77 -42
-150 -94 -150 -107 0 -4 17 -13 38 -20 117 -41 204 -93 280 -169 112 -112 172
-227 272 -517 129 -377 231 -571 376 -720 156 -159 323 -267 545 -349 142 -53
357 -99 417 -89 l34 5 -44 29 c-24 16 -47 29 -52 29 -13 0 -227 110 -284 146
-29 19 -55 34 -58 34 -2 0 -48 33 -102 72 -129 96 -256 225 -319 323 -29 44
-56 85 -60 90 -15 17 -140 276 -166 345 -14 36 -44 126 -67 200 -94 302 -205
509 -300 560 -31 17 -17 24 89 45 61 13 117 16 207 13 69 -2 123 -1 122 2 -2
3 -17 32 -34 65 -68 131 -99 267 -92 399 6 104 47 224 140 410 121 241 148
340 148 534 0 98 0 100 22 94 24 -6 198 -178 198 -196 0 -6 9 -22 20 -36 l20
-25 23 28 c13 15 51 74 84 130 189 317 295 625 324 946 17 197 -12 445 -76
630 -29 86 -31 101 -10 101 15 0 115 -65 170 -110 112 -92 255 -274 312 -399
91 -197 124 -328 148 -591 9 -102 25 -224 35 -272 21 -99 64 -213 91 -242 11
-11 19 -23 19 -28 0 -4 19 -21 42 -38 84 -61 179 -29 211 70 21 63 9 119 -41
190 -72 102 -102 194 -102 315 1 128 33 237 99 330 31 44 100 121 102 113 0
-2 2 -52 3 -113 7 -193 58 -321 202 -497 203 -247 261 -335 309 -462 41 -110
55 -195 55 -342 0 -74 3 -134 6 -134 30 0 223 195 278 279 l41 64 27 -59 c31
-67 67 -179 100 -310 20 -79 23 -113 22 -304 0 -200 -2 -222 -26 -311 -14 -53
-40 -131 -57 -174 -17 -43 -30 -79 -28 -81 1 -2 20 1 42 6 55 13 150 12 218
-1 l56 -12 -22 -31 c-12 -17 -27 -35 -34 -41 -13 -11 -103 -152 -103 -161 0
-3 -9 -17 -20 -31 -11 -14 -20 -34 -20 -44 0 -11 -4 -19 -8 -19 -12 0 -65
-122 -97 -221 -62 -193 -177 -460 -241 -555 -31 -47 -44 -68 -51 -84 -4 -8 -9
-17 -13 -20 -3 -3 -20 -25 -37 -50 -46 -65 -248 -270 -268 -270 -3 0 -41 -26
-84 -58 -43 -31 -94 -66 -112 -77 -95 -56 -167 -97 -198 -111 -18 -8 -51 -26
-73 -40 -35 -23 -37 -26 -23 -41 15 -14 24 -14 103 0 106 19 233 51 287 73 22
9 49 20 60 24 242 99 444 254 603 465 67 89 168 314 247 553 119 355 196 494
336 603 24 19 46 36 49 39 9 9 113 57 163 75 26 10 47 21 47 26 0 11 -66 61
-130 99 -85 50 -285 130 -326 130 -12 0 -13 20 -7 113 32 466 -35 797 -222
1087 -48 74 -191 230 -212 230 -5 0 -13 -20 -16 -45 -5 -45 -44 -137 -60 -139
-4 0 -22 33 -40 74 -57 130 -100 190 -243 340 -144 150 -201 252 -225 400 -23
135 17 260 115 362 46 47 52 57 38 64 -9 4 -80 9 -158 12 -120 3 -154 1 -223
-17 -136 -34 -241 -91 -330 -179 -19 -19 -26 -9 -62 93 -116 330 -327 572
-613 706 -84 39 -238 88 -341 108 -74 15 -307 26 -317 16z"/>
<path d="M5925 4257 c-13 -104 7 -193 76 -329 31 -61 47 -152 32 -175 -12 -17
-118 -75 -325 -176 -131 -64 -188 -97 -188 -109 0 -9 18 -25 43 -37 35 -17 62
-21 143 -21 96 1 251 14 307 26 24 6 27 4 27 -20 0 -15 -7 -43 -15 -63 -20
-48 -19 -73 3 -73 40 0 142 112 157 172 6 22 81 88 100 88 18 0 133 162 175
245 14 28 27 52 30 55 14 13 53 133 69 215 17 83 18 165 2 165 -3 0 -44 -39
-91 -87 -108 -112 -280 -273 -290 -273 -4 0 -30 35 -58 78 -28 42 -68 102 -89
132 -21 30 -52 98 -69 150 l-32 94 -7 -57z"/>
<path d="M4218 4196 c-8 -148 52 -321 179 -514 82 -124 129 -163 243 -200 109
-37 416 -78 515 -70 52 4 115 39 115 64 0 6 -24 22 -52 34 -100 42 -343 167
-438 225 -131 79 -206 141 -396 330 -159 157 -164 161 -166 131z"/>
</g>
</svg>
