<svg width="350" height="382" viewBox="0 0 350 382" fill="none" xmlns="http://www.w3.org/2000/svg">
<rect width="350" height="382" rx="8" fill="#0E8784"/>
<path d="M118.324 220.98C118.324 222.18 117.804 223.152 116.764 223.896C115.732 224.632 114.132 225 111.964 225H102.268C101.916 225 101.656 224.928 101.488 224.784C101.32 224.632 101.236 224.432 101.236 224.184C101.236 223.752 101.444 223.456 101.86 223.296L102.316 223.128C102.524 223.048 102.676 222.948 102.772 222.828C102.876 222.7 102.928 222.536 102.928 222.336V210.864C102.928 210.664 102.876 210.504 102.772 210.384C102.676 210.256 102.524 210.152 102.316 210.072L101.86 209.904C101.444 209.744 101.236 209.448 101.236 209.016C101.236 208.76 101.32 208.56 101.488 208.416C101.656 208.272 101.916 208.2 102.268 208.2H109.864C111.424 208.2 112.764 208.408 113.884 208.824C115.004 209.24 115.864 209.82 116.464 210.564C117.064 211.308 117.364 212.18 117.364 213.18C117.364 213.988 117.12 214.704 116.632 215.328C116.152 215.944 115.452 216.428 114.532 216.78C113.612 217.132 112.496 217.308 111.184 217.308L111.724 216.816C113.036 216.816 114.184 216.992 115.168 217.344C116.16 217.688 116.932 218.176 117.484 218.808C118.044 219.432 118.324 220.156 118.324 220.98ZM110.068 217.992H106.972V216.66H109.48C110.072 216.66 110.564 216.548 110.956 216.324C111.356 216.1 111.652 215.756 111.844 215.292C112.044 214.82 112.144 214.224 112.144 213.504C112.144 212.728 112.012 212.064 111.748 211.512C111.484 210.952 111.104 210.52 110.608 210.216C110.12 209.912 109.532 209.76 108.844 209.76H108.496V222.012C108.496 222.5 108.632 222.86 108.904 223.092C109.176 223.324 109.564 223.44 110.068 223.44H110.68C111.128 223.44 111.512 223.34 111.832 223.14C112.16 222.932 112.412 222.632 112.588 222.24C112.764 221.84 112.852 221.36 112.852 220.8C112.852 219.92 112.604 219.232 112.108 218.736C111.62 218.24 110.94 217.992 110.068 217.992ZM131.606 217.704C131.606 218.264 131.454 218.7 131.15 219.012C130.846 219.316 130.41 219.468 129.842 219.468H122.726V218.22H125.93C126.37 218.22 126.59 218.012 126.59 217.596C126.59 216.588 126.474 215.868 126.242 215.436C126.01 215.004 125.702 214.788 125.318 214.788C125.038 214.788 124.786 214.892 124.562 215.1C124.338 215.308 124.158 215.628 124.022 216.06C123.894 216.484 123.83 217.024 123.83 217.68C123.83 219.136 124.158 220.204 124.814 220.884C125.47 221.556 126.366 221.892 127.502 221.892C128.03 221.892 128.51 221.832 128.942 221.712C129.374 221.592 129.798 221.348 130.214 220.98C130.446 220.772 130.622 220.632 130.742 220.56C130.862 220.488 130.978 220.452 131.09 220.452C131.25 220.452 131.366 220.532 131.438 220.692C131.518 220.852 131.558 221.048 131.558 221.28C131.558 221.992 131.314 222.66 130.826 223.284C130.346 223.9 129.674 224.396 128.81 224.772C127.954 225.148 126.954 225.336 125.81 225.336C124.586 225.336 123.486 225.096 122.51 224.616C121.534 224.128 120.762 223.452 120.194 222.588C119.626 221.716 119.342 220.7 119.342 219.54C119.342 218.236 119.602 217.1 120.122 216.132C120.642 215.164 121.398 214.412 122.39 213.876C123.39 213.34 124.594 213.072 126.002 213.072C127.242 213.072 128.278 213.272 129.11 213.672C129.942 214.072 130.566 214.62 130.982 215.316C131.398 216.012 131.606 216.808 131.606 217.704ZM138.58 214.596C138.108 214.596 137.756 214.696 137.524 214.896C137.3 215.096 137.188 215.336 137.188 215.616C137.188 215.784 137.22 215.944 137.284 216.096C137.348 216.24 137.496 216.372 137.728 216.492C137.96 216.612 138.328 216.716 138.832 216.804C140.32 217.052 141.452 217.384 142.228 217.8C143.004 218.208 143.532 218.692 143.812 219.252C144.1 219.812 144.244 220.448 144.244 221.16C144.244 222.464 143.788 223.488 142.876 224.232C141.972 224.968 140.632 225.336 138.856 225.336C138.248 225.336 137.76 225.288 137.392 225.192C137.032 225.096 136.74 225 136.516 224.904C136.3 224.808 136.104 224.76 135.928 224.76C135.736 224.76 135.576 224.808 135.448 224.904C135.32 225 135.192 225.096 135.064 225.192C134.936 225.288 134.772 225.336 134.572 225.336C134.372 225.336 134.22 225.276 134.116 225.156C134.02 225.044 133.928 224.84 133.84 224.544L133.216 222.42C133.088 221.996 133.052 221.664 133.108 221.424C133.164 221.176 133.316 221.004 133.564 220.908C133.82 220.812 134.044 220.808 134.236 220.896C134.428 220.984 134.612 221.16 134.788 221.424C135.156 221.96 135.536 222.404 135.928 222.756C136.328 223.108 136.744 223.372 137.176 223.548C137.616 223.724 138.068 223.812 138.532 223.812C139.068 223.812 139.468 223.712 139.732 223.512C140.004 223.312 140.14 223.044 140.14 222.708C140.14 222.5 140.084 222.32 139.972 222.168C139.868 222.016 139.648 221.88 139.312 221.76C138.984 221.632 138.484 221.508 137.812 221.388C136.652 221.18 135.728 220.884 135.04 220.5C134.36 220.108 133.872 219.628 133.576 219.06C133.28 218.484 133.132 217.816 133.132 217.056C133.132 216.248 133.348 215.548 133.78 214.956C134.22 214.356 134.816 213.892 135.568 213.564C136.328 213.236 137.192 213.072 138.16 213.072C138.792 213.072 139.288 213.124 139.648 213.228C140.016 213.324 140.312 213.424 140.536 213.528C140.768 213.624 140.996 213.672 141.22 213.672C141.436 213.672 141.616 213.624 141.76 213.528C141.912 213.424 142.06 213.324 142.204 213.228C142.348 213.124 142.516 213.072 142.708 213.072C142.884 213.072 143.032 213.136 143.152 213.264C143.272 213.392 143.36 213.612 143.416 213.924L143.788 215.976C143.86 216.384 143.864 216.692 143.8 216.9C143.744 217.1 143.6 217.248 143.368 217.344C143.12 217.448 142.9 217.448 142.708 217.344C142.516 217.232 142.32 217.036 142.12 216.756C141.56 215.948 140.972 215.388 140.356 215.076C139.748 214.756 139.156 214.596 138.58 214.596ZM146.109 214.992L145.725 214.836C145.549 214.764 145.417 214.672 145.329 214.56C145.241 214.448 145.197 214.312 145.197 214.152C145.197 213.92 145.273 213.744 145.425 213.624C145.585 213.496 145.789 213.432 146.037 213.432H146.697C146.849 213.432 146.989 213.392 147.117 213.312C147.253 213.232 147.425 213.088 147.633 212.88L149.589 210.9C149.853 210.636 150.097 210.44 150.321 210.312C150.553 210.184 150.773 210.12 150.981 210.12C151.213 210.12 151.393 210.196 151.521 210.348C151.657 210.5 151.725 210.72 151.725 211.008V220.632C151.725 221.216 151.825 221.66 152.025 221.964C152.225 222.268 152.513 222.42 152.889 222.42C153.193 222.42 153.425 222.344 153.585 222.192C153.753 222.04 153.885 221.868 153.981 221.676C154.085 221.476 154.193 221.3 154.305 221.148C154.417 220.996 154.569 220.92 154.761 220.92C154.921 220.92 155.049 220.976 155.145 221.088C155.241 221.2 155.289 221.392 155.289 221.664C155.289 222.344 155.093 222.964 154.701 223.524C154.309 224.076 153.769 224.516 153.081 224.844C152.393 225.172 151.609 225.336 150.729 225.336C149.425 225.336 148.417 225.024 147.705 224.4C146.993 223.768 146.637 222.816 146.637 221.544V215.772C146.637 215.54 146.593 215.372 146.505 215.268C146.425 215.164 146.293 215.072 146.109 214.992ZM149.973 215.136V213.432H154.353C154.601 213.432 154.797 213.488 154.941 213.6C155.093 213.704 155.169 213.856 155.169 214.056C155.169 214.36 155.021 214.616 154.725 214.824C154.429 215.032 153.941 215.136 153.261 215.136H149.973ZM169.4 230.592C169.08 230.592 168.848 230.528 168.704 230.4C168.56 230.272 168.488 230.096 168.488 229.872C168.488 229.712 168.528 229.572 168.608 229.452C168.688 229.332 168.82 229.232 169.004 229.152L169.268 229.032C169.388 228.976 169.472 228.88 169.52 228.744C169.568 228.616 169.592 228.392 169.592 228.072V214.296L171.584 213.624C172.2 213.416 172.656 213.276 172.952 213.204C173.256 213.132 173.504 213.096 173.696 213.096C174.008 213.096 174.248 213.172 174.416 213.324C174.592 213.476 174.68 213.696 174.68 213.984V228.072C174.68 228.392 174.704 228.616 174.752 228.744C174.8 228.88 174.884 228.976 175.004 229.032L175.268 229.152C175.452 229.232 175.584 229.332 175.664 229.452C175.744 229.572 175.784 229.712 175.784 229.872C175.784 230.096 175.712 230.272 175.568 230.4C175.424 230.528 175.192 230.592 174.872 230.592H169.4ZM171.344 221.736C170.664 222.848 169.892 223.728 169.028 224.376C168.172 225.016 167.192 225.336 166.088 225.336C165.136 225.336 164.284 225.092 163.532 224.604C162.78 224.116 162.184 223.444 161.744 222.588C161.312 221.724 161.096 220.728 161.096 219.6C161.096 218.296 161.364 217.156 161.9 216.18C162.436 215.196 163.168 214.432 164.096 213.888C165.024 213.344 166.072 213.072 167.24 213.072C168.216 213.072 169.064 213.28 169.784 213.696C170.504 214.104 171.128 214.728 171.656 215.568L170.348 216.456C169.98 215.928 169.632 215.556 169.304 215.34C168.976 215.116 168.62 215.004 168.236 215.004C167.86 215.004 167.528 215.14 167.24 215.412C166.96 215.684 166.74 216.12 166.58 216.72C166.428 217.312 166.352 218.1 166.352 219.084C166.352 219.98 166.432 220.704 166.592 221.256C166.76 221.8 166.984 222.2 167.264 222.456C167.552 222.704 167.876 222.828 168.236 222.828C168.684 222.828 169.088 222.68 169.448 222.384C169.816 222.08 170.164 221.592 170.492 220.92L171.344 221.736ZM185.621 222.54V222.384H185.441V216.84C185.441 216.584 185.405 216.404 185.333 216.3C185.269 216.188 185.169 216.112 185.033 216.072L184.769 215.988C184.601 215.932 184.477 215.852 184.397 215.748C184.325 215.644 184.289 215.512 184.289 215.352C184.289 215.16 184.341 215.008 184.445 214.896C184.549 214.784 184.745 214.672 185.033 214.56L187.697 213.528C188.105 213.368 188.433 213.252 188.681 213.18C188.937 213.108 189.185 213.072 189.425 213.072C189.785 213.072 190.057 213.176 190.241 213.384C190.433 213.584 190.529 213.84 190.529 214.152V222.48C190.529 222.8 190.553 223.028 190.601 223.164C190.649 223.292 190.733 223.384 190.853 223.44L191.117 223.56C191.301 223.64 191.433 223.74 191.513 223.86C191.593 223.98 191.633 224.12 191.633 224.28C191.633 224.504 191.561 224.68 191.417 224.808C191.273 224.936 191.041 225 190.721 225H187.781C187.213 225 186.709 224.756 186.269 224.268C185.837 223.78 185.621 223.204 185.621 222.54ZM177.689 221.496V216.84C177.689 216.584 177.653 216.404 177.581 216.3C177.517 216.188 177.417 216.112 177.281 216.072L177.017 215.988C176.849 215.932 176.725 215.852 176.645 215.748C176.573 215.644 176.537 215.512 176.537 215.352C176.537 215.16 176.589 215.008 176.693 214.896C176.797 214.784 176.993 214.672 177.281 214.56L179.945 213.528C180.377 213.36 180.717 213.244 180.965 213.18C181.213 213.108 181.433 213.072 181.625 213.072C182.009 213.072 182.297 213.176 182.489 213.384C182.681 213.584 182.777 213.84 182.777 214.152V220.776C182.777 221.288 182.893 221.672 183.125 221.928C183.365 222.184 183.697 222.312 184.121 222.312C184.385 222.312 184.661 222.26 184.949 222.156C185.237 222.052 185.493 221.9 185.717 221.7L186.137 221.328L186.857 222.096L186.497 222.432C185.369 223.512 184.389 224.268 183.557 224.7C182.725 225.124 181.961 225.336 181.265 225.336C180.201 225.336 179.337 224.98 178.673 224.268C178.017 223.556 177.689 222.632 177.689 221.496ZM200.316 223.356V223.08L199.932 223.068V215.316C199.932 215.012 199.848 214.768 199.68 214.584C199.52 214.4 199.3 214.308 199.02 214.308C198.812 214.308 198.628 214.36 198.468 214.464C198.316 214.56 198.24 214.692 198.24 214.86V216.168C198.24 216.84 198.008 217.36 197.544 217.728C197.088 218.096 196.432 218.28 195.576 218.28C194.848 218.28 194.304 218.128 193.944 217.824C193.592 217.512 193.416 217.08 193.416 216.528C193.416 216 193.656 215.472 194.136 214.944C194.616 214.416 195.336 213.976 196.296 213.624C197.264 213.272 198.48 213.096 199.944 213.096C201.64 213.096 202.9 213.408 203.724 214.032C204.548 214.648 204.96 215.492 204.96 216.564V222.3C204.96 222.452 204.996 222.58 205.068 222.684C205.148 222.78 205.268 222.828 205.428 222.828C205.564 222.828 205.672 222.792 205.752 222.72C205.84 222.648 205.92 222.576 205.992 222.504C206.048 222.448 206.104 222.4 206.16 222.36C206.224 222.32 206.296 222.3 206.376 222.3C206.512 222.3 206.608 222.352 206.664 222.456C206.728 222.552 206.76 222.676 206.76 222.828C206.76 223.18 206.632 223.552 206.376 223.944C206.12 224.328 205.736 224.656 205.224 224.928C204.72 225.2 204.092 225.336 203.34 225.336C202.452 225.336 201.724 225.148 201.156 224.772C200.596 224.396 200.316 223.924 200.316 223.356ZM192.984 222.444C192.984 221.348 193.48 220.484 194.472 219.852C195.464 219.212 196.856 218.892 198.648 218.892C199.12 218.892 199.532 218.924 199.884 218.988C200.236 219.052 200.524 219.144 200.748 219.264L200.34 220.308C200.172 220.212 200.012 220.144 199.86 220.104C199.716 220.064 199.556 220.044 199.38 220.044C198.988 220.044 198.676 220.176 198.444 220.44C198.22 220.696 198.108 221.068 198.108 221.556C198.108 222.068 198.22 222.46 198.444 222.732C198.668 222.996 198.964 223.128 199.332 223.128C199.564 223.128 199.78 223.076 199.98 222.972C200.188 222.86 200.344 222.732 200.448 222.588L200.736 223.548C200.352 224.116 199.792 224.556 199.056 224.868C198.328 225.18 197.548 225.336 196.716 225.336C195.596 225.336 194.692 225.06 194.004 224.508C193.324 223.956 192.984 223.268 192.984 222.444ZM213.65 207.96V222.48C213.65 222.8 213.674 223.028 213.722 223.164C213.77 223.292 213.854 223.384 213.974 223.44L214.238 223.56C214.422 223.64 214.554 223.74 214.634 223.86C214.714 223.98 214.754 224.12 214.754 224.28C214.754 224.504 214.682 224.68 214.538 224.808C214.394 224.936 214.162 225 213.842 225H208.37C208.05 225 207.818 224.936 207.674 224.808C207.53 224.68 207.458 224.504 207.458 224.28C207.458 224.12 207.498 223.98 207.578 223.86C207.658 223.74 207.79 223.64 207.974 223.56L208.238 223.44C208.358 223.384 208.442 223.292 208.49 223.164C208.538 223.028 208.562 222.8 208.562 222.48V210.648C208.562 210.392 208.526 210.212 208.454 210.108C208.39 209.996 208.29 209.92 208.154 209.88L207.89 209.796C207.722 209.74 207.598 209.66 207.518 209.556C207.446 209.452 207.41 209.32 207.41 209.16C207.41 208.968 207.462 208.816 207.566 208.704C207.67 208.592 207.866 208.48 208.154 208.368L210.818 207.336C211.25 207.168 211.59 207.052 211.838 206.988C212.086 206.916 212.306 206.88 212.498 206.88C212.882 206.88 213.17 206.984 213.362 207.192C213.554 207.392 213.65 207.648 213.65 207.96ZM222.087 214.152V222.48C222.087 222.8 222.111 223.028 222.159 223.164C222.207 223.292 222.291 223.384 222.411 223.44L222.675 223.56C222.859 223.64 222.991 223.74 223.071 223.86C223.151 223.98 223.191 224.12 223.191 224.28C223.191 224.504 223.119 224.68 222.975 224.808C222.831 224.936 222.599 225 222.279 225H216.807C216.487 225 216.255 224.936 216.111 224.808C215.967 224.68 215.895 224.504 215.895 224.28C215.895 224.12 215.935 223.98 216.015 223.86C216.095 223.74 216.227 223.64 216.411 223.56L216.675 223.44C216.795 223.384 216.879 223.292 216.927 223.164C216.975 223.028 216.999 222.8 216.999 222.48V216.84C216.999 216.584 216.963 216.404 216.891 216.3C216.827 216.188 216.727 216.112 216.591 216.072L216.327 215.988C216.159 215.932 216.035 215.852 215.955 215.748C215.883 215.644 215.847 215.512 215.847 215.352C215.847 215.16 215.899 215.008 216.003 214.896C216.107 214.784 216.303 214.672 216.591 214.56L219.255 213.528C219.687 213.36 220.027 213.244 220.275 213.18C220.523 213.108 220.743 213.072 220.935 213.072C221.319 213.072 221.607 213.176 221.799 213.384C221.991 213.584 222.087 213.84 222.087 214.152ZM219.279 212.016C218.383 212.016 217.675 211.808 217.155 211.392C216.635 210.976 216.375 210.408 216.375 209.688C216.375 208.976 216.635 208.416 217.155 208.008C217.675 207.6 218.383 207.396 219.279 207.396C220.175 207.396 220.883 207.6 221.403 208.008C221.923 208.416 222.183 208.976 222.183 209.688C222.183 210.408 221.923 210.976 221.403 211.392C220.883 211.808 220.175 212.016 219.279 212.016ZM224.789 214.992L224.405 214.836C224.229 214.764 224.097 214.672 224.009 214.56C223.921 214.448 223.877 214.312 223.877 214.152C223.877 213.92 223.953 213.744 224.105 213.624C224.265 213.496 224.469 213.432 224.717 213.432H225.377C225.529 213.432 225.669 213.392 225.797 213.312C225.933 213.232 226.105 213.088 226.313 212.88L228.269 210.9C228.533 210.636 228.777 210.44 229.001 210.312C229.233 210.184 229.453 210.12 229.661 210.12C229.893 210.12 230.073 210.196 230.201 210.348C230.337 210.5 230.405 210.72 230.405 211.008V220.632C230.405 221.216 230.505 221.66 230.705 221.964C230.905 222.268 231.193 222.42 231.569 222.42C231.873 222.42 232.105 222.344 232.265 222.192C232.433 222.04 232.565 221.868 232.661 221.676C232.765 221.476 232.873 221.3 232.985 221.148C233.097 220.996 233.249 220.92 233.441 220.92C233.601 220.92 233.729 220.976 233.825 221.088C233.921 221.2 233.969 221.392 233.969 221.664C233.969 222.344 233.773 222.964 233.381 223.524C232.989 224.076 232.449 224.516 231.761 224.844C231.073 225.172 230.289 225.336 229.409 225.336C228.105 225.336 227.097 225.024 226.385 224.4C225.673 223.768 225.317 222.816 225.317 221.544V215.772C225.317 215.54 225.273 215.372 225.185 215.268C225.105 215.164 224.973 215.072 224.789 214.992ZM228.653 215.136V213.432H233.033C233.281 213.432 233.477 213.488 233.621 213.6C233.773 213.704 233.849 213.856 233.849 214.056C233.849 214.36 233.701 214.616 233.405 214.824C233.109 215.032 232.621 215.136 231.941 215.136H228.653ZM243.926 222.648L241.142 227.148L235.634 215.796C235.498 215.508 235.362 215.308 235.226 215.196C235.09 215.076 234.914 214.964 234.698 214.86C234.538 214.78 234.422 214.688 234.35 214.584C234.278 214.472 234.242 214.328 234.242 214.152C234.242 213.928 234.318 213.752 234.47 213.624C234.63 213.496 234.846 213.432 235.118 213.432H241.574C241.838 213.432 242.046 213.496 242.198 213.624C242.358 213.752 242.438 213.928 242.438 214.152C242.438 214.328 242.39 214.472 242.294 214.584C242.206 214.688 242.058 214.772 241.85 214.836L241.526 214.932C241.206 215.028 241.018 215.184 240.962 215.4C240.906 215.616 240.99 215.984 241.214 216.504L243.926 222.648ZM241.214 226.032L241.55 225.264L242.198 224.052L245.126 216.744C245.334 216.232 245.41 215.844 245.354 215.58C245.298 215.308 245.106 215.12 244.778 215.016L244.382 214.884C244.182 214.82 244.03 214.728 243.926 214.608C243.83 214.48 243.782 214.328 243.782 214.152C243.782 213.928 243.858 213.752 244.01 213.624C244.17 213.496 244.382 213.432 244.646 213.432H248.018C248.29 213.432 248.502 213.496 248.654 213.624C248.814 213.752 248.894 213.928 248.894 214.152C248.894 214.296 248.85 214.428 248.762 214.548C248.682 214.66 248.546 214.768 248.354 214.872C248.058 215.024 247.806 215.216 247.598 215.448C247.39 215.68 247.182 216.056 246.974 216.576L243.314 225.444C242.746 226.82 242.23 227.88 241.766 228.624C241.31 229.368 240.814 229.88 240.278 230.16C239.742 230.448 239.074 230.592 238.274 230.592C237.114 230.592 236.19 230.28 235.502 229.656C234.814 229.04 234.47 228.26 234.47 227.316C234.47 226.644 234.642 226.112 234.986 225.72C235.33 225.336 235.79 225.144 236.366 225.144C236.934 225.144 237.366 225.304 237.662 225.624C237.958 225.944 238.222 226.372 238.454 226.908L238.706 227.484C238.818 227.748 238.946 227.956 239.09 228.108C239.242 228.26 239.398 228.336 239.558 228.336C239.71 228.336 239.85 228.288 239.978 228.192C240.114 228.104 240.278 227.896 240.47 227.568C240.662 227.24 240.91 226.728 241.214 226.032Z" fill="#FEFCF7"/>
<path d="M61.0245 275H64.7525C66.8645 275 68.2085 273.816 68.2085 271.912V266.888C68.2085 264.984 66.8645 263.8 64.7525 263.8H61.0245C60.8965 263.8 60.8165 263.88 60.8165 264.008V274.792C60.8165 274.92 60.8965 275 61.0245 275ZM61.9525 273.928V264.872C61.9525 264.824 61.9845 264.792 62.0325 264.792H64.8005C66.2085 264.792 67.0725 265.656 67.0725 267.048V271.768C67.0725 273.144 66.1925 274.008 64.8005 274.008H62.0325C61.9845 274.008 61.9525 273.976 61.9525 273.928ZM71.1711 265.448C71.6831 265.448 72.0351 265.112 72.0351 264.616C72.0351 264.136 71.6831 263.8 71.1711 263.8C70.6591 263.8 70.3071 264.136 70.3071 264.616C70.3071 265.112 70.6591 265.448 71.1711 265.448ZM70.8191 275H71.5391C71.6671 275 71.7471 274.92 71.7471 274.792V267.112C71.7471 266.984 71.6671 266.904 71.5391 266.904H70.8191C70.6911 266.904 70.6111 266.984 70.6111 267.112V274.792C70.6111 274.92 70.6911 275 70.8191 275ZM77.061 275.08C78.869 275.08 80.037 274.168 80.037 272.792C80.037 271.208 78.485 270.776 77.125 270.392C76.037 270.072 75.173 269.784 75.173 268.984C75.173 268.216 75.909 267.752 76.981 267.752C78.181 267.752 78.901 268.328 78.901 269.032V269.128C78.901 269.192 78.981 269.24 79.109 269.24H79.765C79.893 269.24 79.973 269.16 79.973 269.032C79.973 267.768 78.789 266.824 76.997 266.824C75.269 266.824 74.069 267.688 74.069 269.064C74.069 270.584 75.541 271.048 76.917 271.448C77.973 271.768 78.901 272.008 78.901 272.872C78.901 273.624 78.165 274.2 77.045 274.2C75.893 274.2 75.125 273.56 75.125 272.888V272.744C75.125 272.664 75.045 272.6 74.917 272.6H74.229C74.101 272.6 74.021 272.68 74.021 272.808V272.952C74.021 274.12 75.221 275.08 77.061 275.08ZM85.1798 275.128C86.7478 275.128 87.9958 274.28 88.3158 273.048C88.3478 272.936 88.3638 272.84 88.3798 272.776C88.3958 272.632 88.3158 272.552 88.1878 272.536L87.4998 272.424C87.3718 272.408 87.2758 272.456 87.2598 272.6L87.2438 272.616C87.2438 272.632 87.2438 272.664 87.2278 272.696C87.0518 273.512 86.2518 274.136 85.1798 274.136C84.0918 274.136 83.3558 273.496 83.1478 272.568C83.0678 272.248 83.0038 271.72 83.0038 270.936C83.0038 270.216 83.0678 269.656 83.1478 269.32C83.3558 268.408 84.0918 267.768 85.1798 267.768C86.2838 267.768 87.0678 268.44 87.2438 269.224C87.2598 269.288 87.2758 269.352 87.2758 269.416C87.3078 269.56 87.3878 269.608 87.5158 269.592L88.2198 269.512C88.3478 269.496 88.4278 269.416 88.4118 269.272C88.3958 269.16 88.3638 269 88.3158 268.84C87.9958 267.704 86.7958 266.776 85.1798 266.776C83.6278 266.776 82.4598 267.656 82.0758 268.968C81.9478 269.464 81.8678 270.04 81.8678 270.92C81.8678 271.736 81.9158 272.36 82.0758 272.904C82.4758 274.248 83.6118 275.128 85.1798 275.128ZM93.4934 275.128C95.0134 275.128 96.1814 274.28 96.5974 272.904C96.7574 272.376 96.8214 271.704 96.8214 270.936C96.8214 270.184 96.7574 269.512 96.5974 268.968C96.1974 267.624 95.0294 266.776 93.4934 266.776C91.9094 266.776 90.7574 267.624 90.3414 268.984C90.1974 269.496 90.1334 270.152 90.1334 270.936C90.1334 271.704 90.1974 272.376 90.3574 272.904C90.7734 274.28 91.9254 275.128 93.4934 275.128ZM93.4934 274.136C92.4214 274.136 91.6534 273.528 91.4134 272.568C91.3174 272.216 91.2854 271.64 91.2854 270.952C91.2854 270.28 91.3174 269.688 91.4134 269.336C91.6694 268.392 92.4214 267.768 93.4614 267.768C94.5334 267.768 95.3014 268.392 95.5414 269.336C95.6374 269.688 95.6694 270.248 95.6694 270.952C95.6694 271.592 95.6374 272.184 95.5414 272.568C95.2854 273.528 94.5174 274.136 93.4934 274.136ZM100.907 275H101.771C101.883 275 101.979 274.936 102.011 274.824L104.587 267.16C104.635 267.016 104.571 266.92 104.427 266.92L103.611 266.904C103.499 266.904 103.419 266.952 103.387 267.08L101.387 273.304C101.371 273.384 101.307 273.384 101.291 273.304L99.2913 267.08C99.2593 266.952 99.1793 266.904 99.0673 266.904H98.2513C98.1073 266.904 98.0273 267 98.0753 267.144L100.667 274.824C100.699 274.936 100.795 275 100.907 275ZM109.291 274.152C108.123 274.152 107.339 273.512 107.115 272.584C107.051 272.344 107.019 271.944 107.019 271.416C107.019 271.368 107.051 271.336 107.099 271.336H112.219C112.347 271.336 112.427 271.256 112.427 271.128C112.427 270.376 112.411 269.96 112.331 269.528C112.043 267.848 111.035 266.776 109.131 266.776C107.547 266.776 106.395 267.688 106.043 269.064C105.915 269.56 105.899 270.104 105.899 270.92C105.899 271.816 105.979 272.536 106.203 273.128C106.635 274.36 107.675 275.128 109.195 275.128C110.635 275.128 111.675 274.424 112.171 273.384C112.235 273.272 112.187 273.176 112.075 273.112L111.611 272.856C111.499 272.792 111.387 272.84 111.339 272.952C110.971 273.672 110.283 274.136 109.291 274.152ZM109.131 267.768C110.235 267.768 110.971 268.408 111.195 269.336C111.243 269.56 111.275 269.928 111.291 270.36C111.291 270.408 111.259 270.44 111.211 270.44H107.099C107.051 270.44 107.019 270.408 107.019 270.36C107.035 269.896 107.067 269.528 107.147 269.272C107.355 268.392 108.043 267.768 109.131 267.768ZM117.95 266.824C117.022 266.824 116.334 267.304 115.902 268.04C115.87 268.104 115.822 268.088 115.822 268.008V267.112C115.822 266.984 115.742 266.904 115.614 266.904H114.894C114.766 266.904 114.686 266.984 114.686 267.112V274.792C114.686 274.92 114.766 275 114.894 275H115.614C115.742 275 115.822 274.92 115.822 274.792V270.12C115.822 268.92 116.638 268.056 117.742 268.024C118.078 268.008 118.334 268.04 118.526 268.104C118.67 268.152 118.75 268.104 118.782 267.976L118.942 267.272C118.974 267.16 118.942 267.064 118.83 267.016C118.622 266.904 118.35 266.824 117.95 266.824ZM126.518 266.776C124.87 266.776 123.686 267.576 123.478 268.744C123.462 268.856 123.542 268.904 123.67 268.92L124.454 269.016C124.582 269.032 124.662 268.984 124.694 268.856C124.87 268.184 125.526 267.768 126.534 267.768C127.862 267.768 128.406 268.488 128.406 269.528V270.12C128.406 270.168 128.374 270.2 128.326 270.2H126.47C124.39 270.2 123.174 271.192 123.174 272.792C123.174 274.472 124.454 275.128 125.814 275.128C126.822 275.128 127.718 274.808 128.31 274.184C128.358 274.12 128.406 274.152 128.406 274.216V274.792C128.406 274.92 128.486 275 128.614 275H129.334C129.462 275 129.542 274.92 129.542 274.792V269.464C129.542 267.88 128.47 266.776 126.518 266.776ZM126.07 274.152C125.094 274.152 124.31 273.704 124.31 272.728C124.31 271.688 125.254 271.096 126.646 271.096H128.326C128.374 271.096 128.406 271.128 128.406 271.176V272.408C128.406 273.528 127.254 274.152 126.07 274.152ZM135.249 266.792C134.321 266.792 133.569 267.112 133.105 267.752C133.073 267.816 133.025 267.768 133.025 267.704V267.112C133.025 266.984 132.945 266.904 132.817 266.904H132.097C131.969 266.904 131.889 266.984 131.889 267.112V274.792C131.889 274.92 131.969 275 132.097 275H132.817C132.945 275 133.025 274.92 133.025 274.792V269.464C133.137 268.456 133.905 267.784 134.993 267.784C136.129 267.784 136.897 268.6 136.897 269.784V274.792C136.897 274.92 136.977 275 137.105 275H137.825C137.953 275 138.033 274.92 138.033 274.792V269.56C138.033 267.88 136.929 266.792 135.249 266.792ZM146.87 274.152C145.702 274.152 144.918 273.512 144.694 272.584C144.63 272.344 144.598 271.944 144.598 271.416C144.598 271.368 144.63 271.336 144.678 271.336H149.798C149.926 271.336 150.006 271.256 150.006 271.128C150.006 270.376 149.99 269.96 149.91 269.528C149.622 267.848 148.614 266.776 146.71 266.776C145.126 266.776 143.974 267.688 143.622 269.064C143.493 269.56 143.478 270.104 143.478 270.92C143.478 271.816 143.558 272.536 143.782 273.128C144.214 274.36 145.254 275.128 146.774 275.128C148.214 275.128 149.254 274.424 149.75 273.384C149.814 273.272 149.766 273.176 149.654 273.112L149.19 272.856C149.078 272.792 148.966 272.84 148.918 272.952C148.55 273.672 147.862 274.136 146.87 274.152ZM146.71 267.768C147.814 267.768 148.55 268.408 148.774 269.336C148.822 269.56 148.854 269.928 148.87 270.36C148.87 270.408 148.838 270.44 148.79 270.44H144.678C144.63 270.44 144.598 270.408 144.598 270.36C144.614 269.896 144.646 269.528 144.726 269.272C144.934 268.392 145.622 267.768 146.71 267.768ZM155.624 266.792C154.696 266.792 153.944 267.112 153.48 267.752C153.448 267.816 153.4 267.768 153.4 267.704V267.112C153.4 266.984 153.32 266.904 153.192 266.904H152.472C152.344 266.904 152.264 266.984 152.264 267.112V274.792C152.264 274.92 152.344 275 152.472 275H153.192C153.32 275 153.4 274.92 153.4 274.792V269.464C153.512 268.456 154.28 267.784 155.368 267.784C156.504 267.784 157.272 268.6 157.272 269.784V274.792C157.272 274.92 157.352 275 157.48 275H158.2C158.328 275 158.408 274.92 158.408 274.792V269.56C158.408 267.88 157.304 266.792 155.624 266.792ZM165.865 264.008V267.704C165.865 267.768 165.817 267.8 165.769 267.736C165.305 267.128 164.585 266.776 163.737 266.776C162.185 266.776 161.161 267.64 160.777 268.968C160.617 269.512 160.585 270.168 160.585 270.952C160.585 271.768 160.633 272.424 160.809 272.984C161.193 274.28 162.217 275.128 163.737 275.128C164.585 275.128 165.305 274.776 165.769 274.152C165.817 274.104 165.865 274.12 165.865 274.184V274.792C165.865 274.92 165.945 275 166.073 275H166.793C166.921 275 167.001 274.92 167.001 274.792V264.008C167.001 263.88 166.921 263.8 166.793 263.8H166.073C165.945 263.8 165.865 263.88 165.865 264.008ZM165.561 272.904C165.305 273.624 164.729 274.136 163.849 274.136C162.953 274.136 162.265 273.656 162.009 272.888C161.817 272.456 161.721 271.992 161.721 270.952C161.721 269.848 161.849 269.368 162.089 268.936C162.361 268.248 163.001 267.768 163.865 267.768C164.713 267.768 165.289 268.264 165.545 268.968C165.737 269.4 165.833 269.88 165.833 270.952C165.833 272.008 165.753 272.488 165.561 272.904ZM169.769 275H170.489C170.617 275 170.697 274.92 170.697 274.792V264.008C170.697 263.88 170.617 263.8 170.489 263.8H169.769C169.641 263.8 169.561 263.88 169.561 264.008V274.792C169.561 274.92 169.641 275 169.769 275ZM176.432 274.152C175.264 274.152 174.48 273.512 174.256 272.584C174.192 272.344 174.16 271.944 174.16 271.416C174.16 271.368 174.192 271.336 174.24 271.336H179.36C179.488 271.336 179.568 271.256 179.568 271.128C179.568 270.376 179.552 269.96 179.472 269.528C179.184 267.848 178.176 266.776 176.272 266.776C174.688 266.776 173.536 267.688 173.184 269.064C173.056 269.56 173.04 270.104 173.04 270.92C173.04 271.816 173.12 272.536 173.344 273.128C173.776 274.36 174.816 275.128 176.336 275.128C177.776 275.128 178.816 274.424 179.312 273.384C179.376 273.272 179.328 273.176 179.216 273.112L178.752 272.856C178.64 272.792 178.528 272.84 178.48 272.952C178.112 273.672 177.424 274.136 176.432 274.152ZM176.272 267.768C177.376 267.768 178.112 268.408 178.336 269.336C178.384 269.56 178.416 269.928 178.432 270.36C178.432 270.408 178.4 270.44 178.352 270.44H174.24C174.192 270.44 174.16 270.408 174.16 270.36C174.176 269.896 174.208 269.528 174.288 269.272C174.496 268.392 175.184 267.768 176.272 267.768ZM184.483 275.08C186.291 275.08 187.459 274.168 187.459 272.792C187.459 271.208 185.907 270.776 184.547 270.392C183.459 270.072 182.595 269.784 182.595 268.984C182.595 268.216 183.331 267.752 184.403 267.752C185.603 267.752 186.323 268.328 186.323 269.032V269.128C186.323 269.192 186.403 269.24 186.531 269.24H187.187C187.315 269.24 187.395 269.16 187.395 269.032C187.395 267.768 186.211 266.824 184.419 266.824C182.691 266.824 181.491 267.688 181.491 269.064C181.491 270.584 182.963 271.048 184.339 271.448C185.395 271.768 186.323 272.008 186.323 272.872C186.323 273.624 185.587 274.2 184.467 274.2C183.315 274.2 182.547 273.56 182.547 272.888V272.744C182.547 272.664 182.467 272.6 182.339 272.6H181.651C181.523 272.6 181.443 272.68 181.443 272.808V272.952C181.443 274.12 182.643 275.08 184.483 275.08ZM191.967 275.08C193.775 275.08 194.943 274.168 194.943 272.792C194.943 271.208 193.391 270.776 192.031 270.392C190.943 270.072 190.079 269.784 190.079 268.984C190.079 268.216 190.815 267.752 191.887 267.752C193.087 267.752 193.807 268.328 193.807 269.032V269.128C193.807 269.192 193.887 269.24 194.015 269.24H194.671C194.799 269.24 194.879 269.16 194.879 269.032C194.879 267.768 193.695 266.824 191.903 266.824C190.175 266.824 188.975 267.688 188.975 269.064C188.975 270.584 190.447 271.048 191.823 271.448C192.879 271.768 193.807 272.008 193.807 272.872C193.807 273.624 193.071 274.2 191.951 274.2C190.799 274.2 190.031 273.56 190.031 272.888V272.744C190.031 272.664 189.951 272.6 189.823 272.6H189.135C189.007 272.6 188.927 272.68 188.927 272.808V272.952C188.927 274.12 190.127 275.08 191.967 275.08ZM202.329 275H203.193C203.305 275 203.401 274.936 203.433 274.824L206.009 267.16C206.057 267.016 205.993 266.92 205.849 266.92L205.033 266.904C204.921 266.904 204.841 266.952 204.809 267.08L202.809 273.304C202.793 273.384 202.729 273.384 202.713 273.304L200.713 267.08C200.681 266.952 200.601 266.904 200.489 266.904H199.673C199.529 266.904 199.449 267 199.497 267.144L202.089 274.824C202.121 274.936 202.217 275 202.329 275ZM210.455 266.776C208.807 266.776 207.623 267.576 207.415 268.744C207.399 268.856 207.479 268.904 207.607 268.92L208.391 269.016C208.519 269.032 208.599 268.984 208.631 268.856C208.807 268.184 209.463 267.768 210.471 267.768C211.799 267.768 212.343 268.488 212.343 269.528V270.12C212.343 270.168 212.311 270.2 212.263 270.2H210.407C208.327 270.2 207.111 271.192 207.111 272.792C207.111 274.472 208.391 275.128 209.751 275.128C210.759 275.128 211.655 274.808 212.247 274.184C212.295 274.12 212.343 274.152 212.343 274.216V274.792C212.343 274.92 212.423 275 212.551 275H213.271C213.399 275 213.479 274.92 213.479 274.792V269.464C213.479 267.88 212.407 266.776 210.455 266.776ZM210.007 274.152C209.031 274.152 208.247 273.704 208.247 272.728C208.247 271.688 209.191 271.096 210.583 271.096H212.263C212.311 271.096 212.343 271.128 212.343 271.176V272.408C212.343 273.528 211.191 274.152 210.007 274.152ZM219.091 266.824C218.163 266.824 217.475 267.304 217.043 268.04C217.011 268.104 216.963 268.088 216.963 268.008V267.112C216.963 266.984 216.883 266.904 216.755 266.904H216.035C215.907 266.904 215.827 266.984 215.827 267.112V274.792C215.827 274.92 215.907 275 216.035 275H216.755C216.883 275 216.963 274.92 216.963 274.792V270.12C216.963 268.92 217.779 268.056 218.883 268.024C219.219 268.008 219.475 268.04 219.667 268.104C219.811 268.152 219.891 268.104 219.923 267.976L220.083 267.272C220.115 267.16 220.083 267.064 219.971 267.016C219.763 266.904 219.491 266.824 219.091 266.824ZM222.343 265.448C222.855 265.448 223.207 265.112 223.207 264.616C223.207 264.136 222.855 263.8 222.343 263.8C221.831 263.8 221.479 264.136 221.479 264.616C221.479 265.112 221.831 265.448 222.343 265.448ZM221.991 275H222.711C222.839 275 222.919 274.92 222.919 274.792V267.112C222.919 266.984 222.839 266.904 222.711 266.904H221.991C221.863 266.904 221.783 266.984 221.783 267.112V274.792C221.783 274.92 221.863 275 221.991 275ZM228.729 274.152C227.561 274.152 226.777 273.512 226.553 272.584C226.489 272.344 226.457 271.944 226.457 271.416C226.457 271.368 226.489 271.336 226.537 271.336H231.657C231.785 271.336 231.865 271.256 231.865 271.128C231.865 270.376 231.849 269.96 231.769 269.528C231.481 267.848 230.473 266.776 228.569 266.776C226.985 266.776 225.833 267.688 225.481 269.064C225.353 269.56 225.337 270.104 225.337 270.92C225.337 271.816 225.417 272.536 225.641 273.128C226.073 274.36 227.113 275.128 228.633 275.128C230.073 275.128 231.113 274.424 231.609 273.384C231.673 273.272 231.625 273.176 231.513 273.112L231.049 272.856C230.937 272.792 230.825 272.84 230.777 272.952C230.409 273.672 229.721 274.136 228.729 274.152ZM228.569 267.768C229.673 267.768 230.409 268.408 230.633 269.336C230.681 269.56 230.713 269.928 230.729 270.36C230.729 270.408 230.697 270.44 230.649 270.44H226.537C226.489 270.44 226.457 270.408 226.457 270.36C226.473 269.896 226.505 269.528 226.585 269.272C226.793 268.392 227.481 267.768 228.569 267.768ZM237.646 267.64V267.112C237.646 266.984 237.566 266.904 237.438 266.904H235.694C235.646 266.904 235.614 266.872 235.614 266.824V265.032C235.614 264.904 235.534 264.824 235.406 264.824H234.718C234.59 264.824 234.51 264.904 234.51 265.032V266.824C234.51 266.872 234.478 266.904 234.43 266.904H233.518C233.39 266.904 233.31 266.984 233.31 267.112V267.64C233.31 267.768 233.39 267.848 233.518 267.848H234.43C234.478 267.848 234.51 267.88 234.51 267.928V272.952C234.51 274.616 235.454 274.984 236.846 274.984H237.39C237.534 274.968 237.598 274.888 237.598 274.76V274.2C237.598 274.072 237.518 273.992 237.39 273.992H237.038C236.078 273.992 235.614 273.64 235.614 272.6V267.928C235.614 267.88 235.646 267.848 235.694 267.848H237.438C237.566 267.848 237.646 267.768 237.646 267.64ZM239.475 278.2H239.587C241.363 278.2 241.843 277.752 242.562 275.704L245.507 267.144C245.555 267 245.475 266.904 245.331 266.904H244.563C244.451 266.904 244.371 266.952 244.339 267.08L242.323 273.352C242.307 273.432 242.243 273.432 242.227 273.352L240.163 267.08C240.131 266.968 240.035 266.904 239.923 266.904H239.171C239.027 266.904 238.947 267 238.995 267.144L241.683 274.952C241.699 275 241.699 275.016 241.683 275.048C241.139 276.84 240.787 277.224 239.587 277.224H239.475C239.411 277.224 239.363 277.304 239.363 277.432V277.992C239.363 278.12 239.411 278.2 239.475 278.2ZM253.525 275.128C255.045 275.128 256.213 274.28 256.629 272.904C256.789 272.376 256.853 271.704 256.853 270.936C256.853 270.184 256.789 269.512 256.629 268.968C256.229 267.624 255.061 266.776 253.525 266.776C251.941 266.776 250.789 267.624 250.373 268.984C250.229 269.496 250.165 270.152 250.165 270.936C250.165 271.704 250.229 272.376 250.389 272.904C250.805 274.28 251.957 275.128 253.525 275.128ZM253.525 274.136C252.453 274.136 251.685 273.528 251.445 272.568C251.349 272.216 251.317 271.64 251.317 270.952C251.317 270.28 251.349 269.688 251.445 269.336C251.701 268.392 252.453 267.768 253.493 267.768C254.565 267.768 255.333 268.392 255.573 269.336C255.669 269.688 255.701 270.248 255.701 270.952C255.701 271.592 255.669 272.184 255.573 272.568C255.317 273.528 254.549 274.136 253.525 274.136ZM262.261 264.792H262.581C262.709 264.792 262.789 264.712 262.789 264.584V264.008C262.789 263.88 262.709 263.8 262.581 263.8H262.165C260.181 263.8 259.621 264.552 259.621 266.456V266.824C259.621 266.872 259.589 266.904 259.541 266.904H258.533C258.405 266.904 258.325 266.984 258.325 267.112V267.736C258.325 267.864 258.405 267.944 258.533 267.944H259.541C259.589 267.944 259.621 267.976 259.621 268.024V274.792C259.621 274.92 259.701 275 259.829 275H260.533C260.661 275 260.741 274.92 260.741 274.792V268.024C260.741 267.976 260.773 267.944 260.821 267.944H262.549C262.677 267.944 262.757 267.864 262.757 267.736V267.112C262.757 266.984 262.677 266.904 262.549 266.904H260.821C260.773 266.904 260.741 266.872 260.741 266.824V266.52C260.741 265.304 261.045 264.792 262.261 264.792ZM271.6 267.64V267.112C271.6 266.984 271.52 266.904 271.391 266.904H269.648C269.6 266.904 269.568 266.872 269.568 266.824V265.032C269.568 264.904 269.488 264.824 269.36 264.824H268.672C268.544 264.824 268.464 264.904 268.464 265.032V266.824C268.464 266.872 268.432 266.904 268.384 266.904H267.472C267.344 266.904 267.264 266.984 267.264 267.112V267.64C267.264 267.768 267.344 267.848 267.472 267.848H268.384C268.432 267.848 268.464 267.88 268.464 267.928V272.952C268.464 274.616 269.408 274.984 270.799 274.984H271.344C271.488 274.968 271.552 274.888 271.552 274.76V274.2C271.552 274.072 271.472 273.992 271.344 273.992H270.992C270.032 273.992 269.568 273.64 269.568 272.6V267.928C269.568 267.88 269.6 267.848 269.648 267.848H271.391C271.52 267.848 271.6 267.768 271.6 267.64ZM277.156 266.792C276.228 266.792 275.476 267.112 275.012 267.752C274.98 267.816 274.932 267.768 274.932 267.704V264.008C274.932 263.88 274.852 263.8 274.724 263.8H274.004C273.876 263.8 273.796 263.88 273.796 264.008V274.792C273.796 274.92 273.876 275 274.004 275H274.724C274.852 275 274.932 274.92 274.932 274.792V269.464C275.044 268.456 275.812 267.784 276.9 267.784C278.036 267.784 278.804 268.6 278.804 269.784V274.792C278.804 274.92 278.884 275 279.012 275H279.732C279.86 275 279.94 274.92 279.94 274.792V269.56C279.94 267.88 278.836 266.792 277.156 266.792ZM285.573 274.152C284.405 274.152 283.621 273.512 283.397 272.584C283.333 272.344 283.301 271.944 283.301 271.416C283.301 271.368 283.333 271.336 283.381 271.336H288.501C288.629 271.336 288.709 271.256 288.709 271.128C288.709 270.376 288.693 269.96 288.613 269.528C288.325 267.848 287.317 266.776 285.413 266.776C283.829 266.776 282.677 267.688 282.325 269.064C282.197 269.56 282.181 270.104 282.181 270.92C282.181 271.816 282.261 272.536 282.485 273.128C282.917 274.36 283.957 275.128 285.477 275.128C286.917 275.128 287.957 274.424 288.453 273.384C288.517 273.272 288.469 273.176 288.357 273.112L287.893 272.856C287.781 272.792 287.669 272.84 287.621 272.952C287.253 273.672 286.565 274.136 285.573 274.152ZM285.413 267.768C286.517 267.768 287.253 268.408 287.477 269.336C287.525 269.56 287.557 269.928 287.573 270.36C287.573 270.408 287.541 270.44 287.493 270.44H283.381C283.333 270.44 283.301 270.408 283.301 270.36C283.317 269.896 283.349 269.528 283.429 269.272C283.637 268.392 284.325 267.768 285.413 267.768ZM50.242 301H51.042C51.154 301 51.234 300.952 51.266 300.824L52.93 294.92C52.946 294.856 53.01 294.856 53.026 294.92L54.754 300.824C54.786 300.952 54.866 301 54.978 301H55.762C55.874 301 55.954 300.952 55.986 300.824L58.258 293.16C58.306 293.016 58.226 292.92 58.082 292.92L57.346 292.904C57.234 292.904 57.138 292.952 57.106 293.08L55.394 299.32C55.378 299.384 55.314 299.384 55.298 299.32L53.554 293.08C53.522 292.952 53.442 292.904 53.33 292.904H52.626C52.514 292.904 52.434 292.952 52.402 293.08L50.69 299.32C50.674 299.384 50.61 299.384 50.594 299.32L48.93 293.08C48.898 292.952 48.818 292.904 48.706 292.904H47.954C47.81 292.904 47.73 293 47.778 293.144L50.018 300.824C50.05 300.952 50.13 301 50.242 301ZM62.8996 301.128C64.4196 301.128 65.5876 300.28 66.0036 298.904C66.1636 298.376 66.2276 297.704 66.2276 296.936C66.2276 296.184 66.1636 295.512 66.0036 294.968C65.6036 293.624 64.4356 292.776 62.8996 292.776C61.3156 292.776 60.1636 293.624 59.7476 294.984C59.6036 295.496 59.5396 296.152 59.5396 296.936C59.5396 297.704 59.6036 298.376 59.7636 298.904C60.1796 300.28 61.3316 301.128 62.8996 301.128ZM62.8996 300.136C61.8276 300.136 61.0596 299.528 60.8196 298.568C60.7236 298.216 60.6916 297.64 60.6916 296.952C60.6916 296.28 60.7236 295.688 60.8196 295.336C61.0756 294.392 61.8276 293.768 62.8676 293.768C63.9396 293.768 64.7076 294.392 64.9476 295.336C65.0436 295.688 65.0756 296.248 65.0756 296.952C65.0756 297.592 65.0436 298.184 64.9476 298.568C64.6916 299.528 63.9236 300.136 62.8996 300.136ZM71.794 292.824C70.866 292.824 70.178 293.304 69.746 294.04C69.714 294.104 69.666 294.088 69.666 294.008V293.112C69.666 292.984 69.586 292.904 69.458 292.904H68.738C68.61 292.904 68.53 292.984 68.53 293.112V300.792C68.53 300.92 68.61 301 68.738 301H69.458C69.586 301 69.666 300.92 69.666 300.792V296.12C69.666 294.92 70.482 294.056 71.586 294.024C71.922 294.008 72.178 294.04 72.37 294.104C72.514 294.152 72.594 294.104 72.626 293.976L72.786 293.272C72.818 293.16 72.786 293.064 72.674 293.016C72.466 292.904 72.194 292.824 71.794 292.824ZM74.5661 301H75.2861C75.4141 301 75.4941 300.92 75.4941 300.792V290.008C75.4941 289.88 75.4141 289.8 75.2861 289.8H74.5661C74.4381 289.8 74.3581 289.88 74.3581 290.008V300.792C74.3581 300.92 74.4381 301 74.5661 301ZM83.0529 290.008V293.704C83.0529 293.768 83.0049 293.8 82.9569 293.736C82.4929 293.128 81.7729 292.776 80.9249 292.776C79.3729 292.776 78.3489 293.64 77.9649 294.968C77.8049 295.512 77.7729 296.168 77.7729 296.952C77.7729 297.768 77.8209 298.424 77.9969 298.984C78.3809 300.28 79.4049 301.128 80.9249 301.128C81.7729 301.128 82.4929 300.776 82.9569 300.152C83.0049 300.104 83.0529 300.12 83.0529 300.184V300.792C83.0529 300.92 83.1329 301 83.2609 301H83.9809C84.1089 301 84.1889 300.92 84.1889 300.792V290.008C84.1889 289.88 84.1089 289.8 83.9809 289.8H83.2609C83.1329 289.8 83.0529 289.88 83.0529 290.008ZM82.7489 298.904C82.4929 299.624 81.9169 300.136 81.0369 300.136C80.1409 300.136 79.4529 299.656 79.1969 298.888C79.0049 298.456 78.9089 297.992 78.9089 296.952C78.9089 295.848 79.0369 295.368 79.2769 294.936C79.5489 294.248 80.1889 293.768 81.0529 293.768C81.9009 293.768 82.4769 294.264 82.7329 294.968C82.9249 295.4 83.0209 295.88 83.0209 296.952C83.0209 298.008 82.9409 298.488 82.7489 298.904ZM87.6715 289.8H86.9195C86.8075 289.8 86.7275 289.848 86.6955 289.976L85.7675 292.84C85.7195 292.984 85.7995 293.08 85.9435 293.08H86.4395C86.5515 293.08 86.6315 293.032 86.6795 292.92L87.8315 290.04C87.8795 289.896 87.8155 289.8 87.6715 289.8ZM90.9829 301.08C92.7909 301.08 93.9589 300.168 93.9589 298.792C93.9589 297.208 92.4069 296.776 91.0469 296.392C89.9589 296.072 89.0949 295.784 89.0949 294.984C89.0949 294.216 89.8309 293.752 90.9029 293.752C92.1029 293.752 92.8229 294.328 92.8229 295.032V295.128C92.8229 295.192 92.9029 295.24 93.0309 295.24H93.6869C93.8149 295.24 93.8949 295.16 93.8949 295.032C93.8949 293.768 92.7109 292.824 90.9189 292.824C89.1909 292.824 87.9909 293.688 87.9909 295.064C87.9909 296.584 89.4629 297.048 90.8389 297.448C91.8949 297.768 92.8229 298.008 92.8229 298.872C92.8229 299.624 92.0869 300.2 90.9669 300.2C89.8149 300.2 89.0469 299.56 89.0469 298.888V298.744C89.0469 298.664 88.9669 298.6 88.8389 298.6H88.1509C88.0229 298.6 87.9429 298.68 87.9429 298.808V298.952C87.9429 300.12 89.1429 301.08 90.9829 301.08ZM105.473 294.968C105.089 293.64 104.065 292.776 102.513 292.776C101.665 292.776 100.945 293.128 100.481 293.736C100.433 293.8 100.385 293.768 100.385 293.704V290.008C100.385 289.88 100.305 289.8 100.177 289.8H99.4568C99.3288 289.8 99.2488 289.88 99.2488 290.008V300.792C99.2488 300.92 99.3288 301 99.4568 301H100.177C100.305 301 100.385 300.92 100.385 300.792V300.184C100.385 300.12 100.433 300.104 100.481 300.152C100.945 300.776 101.665 301.128 102.513 301.128C104.033 301.128 105.057 300.28 105.441 298.984C105.617 298.424 105.665 297.768 105.665 296.952C105.665 296.168 105.633 295.512 105.473 294.968ZM104.241 298.888C103.985 299.656 103.297 300.136 102.401 300.136C101.521 300.136 100.945 299.624 100.689 298.904C100.497 298.488 100.417 298.008 100.417 296.952C100.417 295.88 100.513 295.4 100.705 294.968C100.961 294.264 101.537 293.768 102.385 293.768C103.249 293.768 103.889 294.248 104.161 294.936C104.401 295.368 104.529 295.848 104.529 296.952C104.529 297.992 104.433 298.456 104.241 298.888ZM111.073 300.152C109.905 300.152 109.121 299.512 108.897 298.584C108.833 298.344 108.801 297.944 108.801 297.416C108.801 297.368 108.833 297.336 108.881 297.336H114.001C114.129 297.336 114.209 297.256 114.209 297.128C114.209 296.376 114.193 295.96 114.113 295.528C113.825 293.848 112.817 292.776 110.913 292.776C109.329 292.776 108.177 293.688 107.825 295.064C107.697 295.56 107.681 296.104 107.681 296.92C107.681 297.816 107.761 298.536 107.985 299.128C108.417 300.36 109.457 301.128 110.977 301.128C112.417 301.128 113.457 300.424 113.953 299.384C114.017 299.272 113.969 299.176 113.857 299.112L113.393 298.856C113.281 298.792 113.169 298.84 113.121 298.952C112.753 299.672 112.065 300.136 111.073 300.152ZM110.913 293.768C112.017 293.768 112.753 294.408 112.977 295.336C113.025 295.56 113.057 295.928 113.073 296.36C113.073 296.408 113.041 296.44 112.993 296.44H108.881C108.833 296.44 108.801 296.408 108.801 296.36C108.817 295.896 108.849 295.528 108.929 295.272C109.137 294.392 109.825 293.768 110.913 293.768ZM119.124 301.08C120.932 301.08 122.1 300.168 122.1 298.792C122.1 297.208 120.548 296.776 119.188 296.392C118.1 296.072 117.236 295.784 117.236 294.984C117.236 294.216 117.972 293.752 119.044 293.752C120.244 293.752 120.964 294.328 120.964 295.032V295.128C120.964 295.192 121.044 295.24 121.172 295.24H121.828C121.956 295.24 122.036 295.16 122.036 295.032C122.036 293.768 120.852 292.824 119.06 292.824C117.332 292.824 116.132 293.688 116.132 295.064C116.132 296.584 117.604 297.048 118.98 297.448C120.036 297.768 120.964 298.008 120.964 298.872C120.964 299.624 120.228 300.2 119.108 300.2C117.956 300.2 117.188 299.56 117.188 298.888V298.744C117.188 298.664 117.108 298.6 116.98 298.6H116.292C116.164 298.6 116.084 298.68 116.084 298.808V298.952C116.084 300.12 117.284 301.08 119.124 301.08ZM127.803 293.64V293.112C127.803 292.984 127.723 292.904 127.595 292.904H125.851C125.803 292.904 125.771 292.872 125.771 292.824V291.032C125.771 290.904 125.691 290.824 125.563 290.824H124.875C124.747 290.824 124.667 290.904 124.667 291.032V292.824C124.667 292.872 124.635 292.904 124.587 292.904H123.675C123.547 292.904 123.467 292.984 123.467 293.112V293.64C123.467 293.768 123.547 293.848 123.675 293.848H124.587C124.635 293.848 124.667 293.88 124.667 293.928V298.952C124.667 300.616 125.611 300.984 127.003 300.984H127.547C127.691 300.968 127.755 300.888 127.755 300.76V300.2C127.755 300.072 127.675 299.992 127.547 299.992H127.195C126.235 299.992 125.771 299.64 125.771 298.6V293.928C125.771 293.88 125.803 293.848 125.851 293.848H127.595C127.723 293.848 127.803 293.768 127.803 293.64ZM136.002 292.776C134.354 292.776 133.17 293.576 132.962 294.744C132.946 294.856 133.026 294.904 133.154 294.92L133.938 295.016C134.066 295.032 134.146 294.984 134.178 294.856C134.354 294.184 135.01 293.768 136.018 293.768C137.346 293.768 137.89 294.488 137.89 295.528V296.12C137.89 296.168 137.858 296.2 137.81 296.2H135.954C133.874 296.2 132.658 297.192 132.658 298.792C132.658 300.472 133.938 301.128 135.298 301.128C136.306 301.128 137.202 300.808 137.794 300.184C137.842 300.12 137.89 300.152 137.89 300.216V300.792C137.89 300.92 137.97 301 138.098 301H138.818C138.946 301 139.026 300.92 139.026 300.792V295.464C139.026 293.88 137.954 292.776 136.002 292.776ZM135.554 300.152C134.578 300.152 133.794 299.704 133.794 298.728C133.794 297.688 134.738 297.096 136.13 297.096H137.81C137.858 297.096 137.89 297.128 137.89 297.176V298.408C137.89 299.528 136.738 300.152 135.554 300.152ZM144.638 292.824C143.71 292.824 143.022 293.304 142.59 294.04C142.558 294.104 142.51 294.088 142.51 294.008V293.112C142.51 292.984 142.43 292.904 142.302 292.904H141.582C141.454 292.904 141.374 292.984 141.374 293.112V300.792C141.374 300.92 141.454 301 141.582 301H142.302C142.43 301 142.51 300.92 142.51 300.792V296.12C142.51 294.92 143.326 294.056 144.43 294.024C144.766 294.008 145.022 294.04 145.214 294.104C145.358 294.152 145.438 294.104 145.47 293.976L145.63 293.272C145.662 293.16 145.63 293.064 145.518 293.016C145.31 292.904 145.038 292.824 144.638 292.824ZM151.053 293.64V293.112C151.053 292.984 150.973 292.904 150.845 292.904H149.101C149.053 292.904 149.021 292.872 149.021 292.824V291.032C149.021 290.904 148.941 290.824 148.813 290.824H148.125C147.997 290.824 147.917 290.904 147.917 291.032V292.824C147.917 292.872 147.885 292.904 147.837 292.904H146.925C146.797 292.904 146.717 292.984 146.717 293.112V293.64C146.717 293.768 146.797 293.848 146.925 293.848H147.837C147.885 293.848 147.917 293.88 147.917 293.928V298.952C147.917 300.616 148.861 300.984 150.253 300.984H150.797C150.941 300.968 151.005 300.888 151.005 300.76V300.2C151.005 300.072 150.925 299.992 150.797 299.992H150.445C149.485 299.992 149.021 299.64 149.021 298.6V293.928C149.021 293.88 149.053 293.848 149.101 293.848H150.845C150.973 293.848 151.053 293.768 151.053 293.64ZM153.937 291.448C154.449 291.448 154.801 291.112 154.801 290.616C154.801 290.136 154.449 289.8 153.937 289.8C153.425 289.8 153.073 290.136 153.073 290.616C153.073 291.112 153.425 291.448 153.937 291.448ZM153.585 301H154.305C154.433 301 154.513 300.92 154.513 300.792V293.112C154.513 292.984 154.433 292.904 154.305 292.904H153.585C153.457 292.904 153.377 292.984 153.377 293.112V300.792C153.377 300.92 153.457 301 153.585 301ZM159.827 301.08C161.635 301.08 162.803 300.168 162.803 298.792C162.803 297.208 161.251 296.776 159.891 296.392C158.803 296.072 157.939 295.784 157.939 294.984C157.939 294.216 158.675 293.752 159.747 293.752C160.947 293.752 161.667 294.328 161.667 295.032V295.128C161.667 295.192 161.747 295.24 161.875 295.24H162.531C162.659 295.24 162.739 295.16 162.739 295.032C162.739 293.768 161.555 292.824 159.763 292.824C158.035 292.824 156.835 293.688 156.835 295.064C156.835 296.584 158.307 297.048 159.683 297.448C160.739 297.768 161.667 298.008 161.667 298.872C161.667 299.624 160.931 300.2 159.811 300.2C158.659 300.2 157.891 299.56 157.891 298.888V298.744C157.891 298.664 157.811 298.6 157.683 298.6H156.995C156.867 298.6 156.787 298.68 156.787 298.808V298.952C156.787 300.12 157.987 301.08 159.827 301.08ZM167.689 292.776C166.041 292.776 164.857 293.576 164.649 294.744C164.633 294.856 164.713 294.904 164.841 294.92L165.625 295.016C165.753 295.032 165.833 294.984 165.865 294.856C166.041 294.184 166.697 293.768 167.705 293.768C169.033 293.768 169.577 294.488 169.577 295.528V296.12C169.577 296.168 169.545 296.2 169.497 296.2H167.641C165.561 296.2 164.345 297.192 164.345 298.792C164.345 300.472 165.625 301.128 166.985 301.128C167.993 301.128 168.889 300.808 169.481 300.184C169.529 300.12 169.577 300.152 169.577 300.216V300.792C169.577 300.92 169.657 301 169.785 301H170.505C170.633 301 170.713 300.92 170.713 300.792V295.464C170.713 293.88 169.641 292.776 167.689 292.776ZM167.241 300.152C166.265 300.152 165.481 299.704 165.481 298.728C165.481 297.688 166.425 297.096 167.817 297.096H169.497C169.545 297.096 169.577 297.128 169.577 297.176V298.408C169.577 299.528 168.425 300.152 167.241 300.152ZM176.421 292.792C175.493 292.792 174.741 293.112 174.277 293.752C174.245 293.816 174.197 293.768 174.197 293.704V293.112C174.197 292.984 174.117 292.904 173.989 292.904H173.269C173.141 292.904 173.061 292.984 173.061 293.112V300.792C173.061 300.92 173.141 301 173.269 301H173.989C174.117 301 174.197 300.92 174.197 300.792V295.464C174.309 294.456 175.077 293.784 176.165 293.784C177.301 293.784 178.069 294.6 178.069 295.784V300.792C178.069 300.92 178.149 301 178.277 301H178.997C179.125 301 179.205 300.92 179.205 300.792V295.56C179.205 293.88 178.101 292.792 176.421 292.792ZM187.945 301.128C189.513 301.128 190.761 300.28 191.081 299.048C191.113 298.936 191.129 298.84 191.145 298.776C191.161 298.632 191.081 298.552 190.953 298.536L190.265 298.424C190.137 298.408 190.041 298.456 190.025 298.6L190.009 298.616C190.009 298.632 190.009 298.664 189.993 298.696C189.817 299.512 189.017 300.136 187.945 300.136C186.857 300.136 186.121 299.496 185.913 298.568C185.833 298.248 185.769 297.72 185.769 296.936C185.769 296.216 185.833 295.656 185.913 295.32C186.121 294.408 186.857 293.768 187.945 293.768C189.049 293.768 189.833 294.44 190.009 295.224C190.025 295.288 190.041 295.352 190.041 295.416C190.073 295.56 190.153 295.608 190.281 295.592L190.985 295.512C191.113 295.496 191.193 295.416 191.177 295.272C191.161 295.16 191.129 295 191.081 294.84C190.761 293.704 189.561 292.776 187.945 292.776C186.393 292.776 185.225 293.656 184.841 294.968C184.713 295.464 184.633 296.04 184.633 296.92C184.633 297.736 184.681 298.36 184.841 298.904C185.241 300.248 186.377 301.128 187.945 301.128ZM196.259 301.128C197.779 301.128 198.947 300.28 199.363 298.904C199.523 298.376 199.587 297.704 199.587 296.936C199.587 296.184 199.523 295.512 199.363 294.968C198.963 293.624 197.795 292.776 196.259 292.776C194.675 292.776 193.523 293.624 193.107 294.984C192.963 295.496 192.899 296.152 192.899 296.936C192.899 297.704 192.963 298.376 193.123 298.904C193.539 300.28 194.691 301.128 196.259 301.128ZM196.259 300.136C195.187 300.136 194.419 299.528 194.179 298.568C194.083 298.216 194.051 297.64 194.051 296.952C194.051 296.28 194.083 295.688 194.179 295.336C194.435 294.392 195.187 293.768 196.227 293.768C197.299 293.768 198.067 294.392 198.307 295.336C198.403 295.688 198.435 296.248 198.435 296.952C198.435 297.592 198.403 298.184 198.307 298.568C198.051 299.528 197.283 300.136 196.259 300.136ZM204.996 290.792H205.316C205.444 290.792 205.524 290.712 205.524 290.584V290.008C205.524 289.88 205.444 289.8 205.316 289.8H204.9C202.916 289.8 202.356 290.552 202.356 292.456V292.824C202.356 292.872 202.324 292.904 202.276 292.904H201.268C201.14 292.904 201.06 292.984 201.06 293.112V293.736C201.06 293.864 201.14 293.944 201.268 293.944H202.276C202.324 293.944 202.356 293.976 202.356 294.024V300.792C202.356 300.92 202.436 301 202.564 301H203.268C203.396 301 203.476 300.92 203.476 300.792V294.024C203.476 293.976 203.508 293.944 203.556 293.944H205.284C205.412 293.944 205.492 293.864 205.492 293.736V293.112C205.492 292.984 205.412 292.904 205.284 292.904H203.556C203.508 292.904 203.476 292.872 203.476 292.824V292.52C203.476 291.304 203.78 290.792 204.996 290.792ZM210.699 290.792H211.019C211.147 290.792 211.227 290.712 211.227 290.584V290.008C211.227 289.88 211.147 289.8 211.019 289.8H210.603C208.619 289.8 208.059 290.552 208.059 292.456V292.824C208.059 292.872 208.027 292.904 207.979 292.904H206.971C206.843 292.904 206.763 292.984 206.763 293.112V293.736C206.763 293.864 206.843 293.944 206.971 293.944H207.979C208.027 293.944 208.059 293.976 208.059 294.024V300.792C208.059 300.92 208.139 301 208.267 301H208.971C209.099 301 209.179 300.92 209.179 300.792V294.024C209.179 293.976 209.211 293.944 209.259 293.944H210.987C211.115 293.944 211.195 293.864 211.195 293.736V293.112C211.195 292.984 211.115 292.904 210.987 292.904H209.259C209.211 292.904 209.179 292.872 209.179 292.824V292.52C209.179 291.304 209.483 290.792 210.699 290.792ZM215.604 300.152C214.436 300.152 213.652 299.512 213.428 298.584C213.364 298.344 213.332 297.944 213.332 297.416C213.332 297.368 213.364 297.336 213.412 297.336H218.532C218.66 297.336 218.74 297.256 218.74 297.128C218.74 296.376 218.724 295.96 218.644 295.528C218.356 293.848 217.348 292.776 215.444 292.776C213.86 292.776 212.708 293.688 212.356 295.064C212.228 295.56 212.212 296.104 212.212 296.92C212.212 297.816 212.292 298.536 212.516 299.128C212.948 300.36 213.988 301.128 215.508 301.128C216.948 301.128 217.988 300.424 218.484 299.384C218.548 299.272 218.5 299.176 218.388 299.112L217.924 298.856C217.812 298.792 217.7 298.84 217.652 298.952C217.284 299.672 216.596 300.136 215.604 300.152ZM215.444 293.768C216.548 293.768 217.284 294.408 217.508 295.336C217.556 295.56 217.588 295.928 217.604 296.36C217.604 296.408 217.572 296.44 217.524 296.44H213.412C213.364 296.44 213.332 296.408 213.332 296.36C213.348 295.896 213.38 295.528 213.46 295.272C213.668 294.392 214.356 293.768 215.444 293.768ZM224.151 300.152C222.983 300.152 222.199 299.512 221.975 298.584C221.911 298.344 221.879 297.944 221.879 297.416C221.879 297.368 221.911 297.336 221.959 297.336H227.079C227.207 297.336 227.287 297.256 227.287 297.128C227.287 296.376 227.271 295.96 227.191 295.528C226.903 293.848 225.895 292.776 223.991 292.776C222.407 292.776 221.255 293.688 220.903 295.064C220.775 295.56 220.759 296.104 220.759 296.92C220.759 297.816 220.839 298.536 221.063 299.128C221.495 300.36 222.535 301.128 224.055 301.128C225.495 301.128 226.535 300.424 227.031 299.384C227.095 299.272 227.047 299.176 226.935 299.112L226.471 298.856C226.359 298.792 226.247 298.84 226.199 298.952C225.831 299.672 225.143 300.136 224.151 300.152ZM223.991 293.768C225.095 293.768 225.831 294.408 226.055 295.336C226.103 295.56 226.135 295.928 226.151 296.36C226.151 296.408 226.119 296.44 226.071 296.44H221.959C221.911 296.44 221.879 296.408 221.879 296.36C221.895 295.896 221.927 295.528 222.007 295.272C222.215 294.392 222.903 293.768 223.991 293.768ZM235.949 290.792H236.269C236.397 290.792 236.477 290.712 236.477 290.584V290.008C236.477 289.88 236.397 289.8 236.269 289.8H235.853C233.869 289.8 233.309 290.552 233.309 292.456V292.824C233.309 292.872 233.277 292.904 233.229 292.904H232.221C232.093 292.904 232.013 292.984 232.013 293.112V293.736C232.013 293.864 232.093 293.944 232.221 293.944H233.229C233.277 293.944 233.309 293.976 233.309 294.024V300.792C233.309 300.92 233.389 301 233.517 301H234.221C234.349 301 234.429 300.92 234.429 300.792V294.024C234.429 293.976 234.461 293.944 234.509 293.944H236.237C236.365 293.944 236.445 293.864 236.445 293.736V293.112C236.445 292.984 236.365 292.904 236.237 292.904H234.509C234.461 292.904 234.429 292.872 234.429 292.824V292.52C234.429 291.304 234.733 290.792 235.949 290.792ZM241.716 292.824C240.788 292.824 240.1 293.304 239.668 294.04C239.636 294.104 239.588 294.088 239.588 294.008V293.112C239.588 292.984 239.508 292.904 239.38 292.904H238.66C238.532 292.904 238.452 292.984 238.452 293.112V300.792C238.452 300.92 238.532 301 238.66 301H239.38C239.508 301 239.588 300.92 239.588 300.792V296.12C239.588 294.92 240.404 294.056 241.508 294.024C241.844 294.008 242.1 294.04 242.292 294.104C242.436 294.152 242.516 294.104 242.548 293.976L242.708 293.272C242.74 293.16 242.708 293.064 242.596 293.016C242.388 292.904 242.116 292.824 241.716 292.824ZM247.306 301.128C248.826 301.128 249.994 300.28 250.41 298.904C250.57 298.376 250.634 297.704 250.634 296.936C250.634 296.184 250.57 295.512 250.41 294.968C250.01 293.624 248.842 292.776 247.306 292.776C245.722 292.776 244.57 293.624 244.154 294.984C244.01 295.496 243.946 296.152 243.946 296.936C243.946 297.704 244.01 298.376 244.17 298.904C244.586 300.28 245.738 301.128 247.306 301.128ZM247.306 300.136C246.234 300.136 245.466 299.528 245.226 298.568C245.13 298.216 245.098 297.64 245.098 296.952C245.098 296.28 245.13 295.688 245.226 295.336C245.482 294.392 246.234 293.768 247.274 293.768C248.346 293.768 249.114 294.392 249.354 295.336C249.45 295.688 249.482 296.248 249.482 296.952C249.482 297.592 249.45 298.184 249.354 298.568C249.098 299.528 248.33 300.136 247.306 300.136ZM261.128 292.792C260.088 292.792 259.16 293.192 258.68 294.088C258.648 294.136 258.616 294.136 258.584 294.072C258.184 293.256 257.368 292.792 256.28 292.792C255.416 292.792 254.648 293.08 254.168 293.704C254.12 293.768 254.072 293.736 254.072 293.672V293.112C254.072 292.984 253.992 292.904 253.864 292.904H253.144C253.016 292.904 252.936 292.984 252.936 293.112V300.792C252.936 300.92 253.016 301 253.144 301H253.864C253.992 301 254.072 300.92 254.072 300.792V295.672C254.072 294.504 254.808 293.784 255.928 293.784C257.032 293.784 257.752 294.52 257.752 295.704V300.792C257.752 300.92 257.832 301 257.96 301H258.68C258.808 301 258.888 300.92 258.888 300.792V295.672C258.888 294.504 259.656 293.784 260.776 293.784C261.864 293.784 262.6 294.52 262.6 295.704V300.792C262.6 300.92 262.68 301 262.808 301H263.512C263.64 301 263.72 300.92 263.72 300.792V295.48C263.72 293.8 262.712 292.792 261.128 292.792ZM272.526 300.152C271.358 300.152 270.574 299.512 270.35 298.584C270.286 298.344 270.254 297.944 270.254 297.416C270.254 297.368 270.286 297.336 270.334 297.336H275.454C275.582 297.336 275.662 297.256 275.662 297.128C275.662 296.376 275.646 295.96 275.566 295.528C275.278 293.848 274.27 292.776 272.366 292.776C270.782 292.776 269.63 293.688 269.278 295.064C269.15 295.56 269.134 296.104 269.134 296.92C269.134 297.816 269.214 298.536 269.438 299.128C269.87 300.36 270.91 301.128 272.43 301.128C273.87 301.128 274.91 300.424 275.406 299.384C275.47 299.272 275.422 299.176 275.31 299.112L274.846 298.856C274.734 298.792 274.622 298.84 274.574 298.952C274.206 299.672 273.518 300.136 272.526 300.152ZM272.366 293.768C273.47 293.768 274.206 294.408 274.43 295.336C274.478 295.56 274.51 295.928 274.526 296.36C274.526 296.408 274.494 296.44 274.446 296.44H270.334C270.286 296.44 270.254 296.408 270.254 296.36C270.27 295.896 270.302 295.528 270.382 295.272C270.59 294.392 271.278 293.768 272.366 293.768ZM280.721 292.776C279.073 292.776 277.889 293.576 277.681 294.744C277.665 294.856 277.745 294.904 277.873 294.92L278.657 295.016C278.785 295.032 278.865 294.984 278.897 294.856C279.073 294.184 279.729 293.768 280.737 293.768C282.065 293.768 282.609 294.488 282.609 295.528V296.12C282.609 296.168 282.577 296.2 282.529 296.2H280.673C278.593 296.2 277.377 297.192 277.377 298.792C277.377 300.472 278.657 301.128 280.017 301.128C281.025 301.128 281.921 300.808 282.513 300.184C282.561 300.12 282.609 300.152 282.609 300.216V300.792C282.609 300.92 282.689 301 282.817 301H283.537C283.665 301 283.745 300.92 283.745 300.792V295.464C283.745 293.88 282.673 292.776 280.721 292.776ZM280.273 300.152C279.297 300.152 278.513 299.704 278.513 298.728C278.513 297.688 279.457 297.096 280.849 297.096H282.529C282.577 297.096 282.609 297.128 282.609 297.176V298.408C282.609 299.528 281.457 300.152 280.273 300.152ZM289.149 301.128C290.717 301.128 291.965 300.28 292.285 299.048C292.317 298.936 292.333 298.84 292.349 298.776C292.365 298.632 292.285 298.552 292.157 298.536L291.469 298.424C291.341 298.408 291.245 298.456 291.229 298.6L291.213 298.616C291.213 298.632 291.213 298.664 291.197 298.696C291.021 299.512 290.221 300.136 289.149 300.136C288.061 300.136 287.325 299.496 287.117 298.568C287.037 298.248 286.973 297.72 286.973 296.936C286.973 296.216 287.037 295.656 287.117 295.32C287.325 294.408 288.061 293.768 289.149 293.768C290.253 293.768 291.037 294.44 291.213 295.224C291.229 295.288 291.245 295.352 291.245 295.416C291.277 295.56 291.357 295.608 291.485 295.592L292.189 295.512C292.317 295.496 292.397 295.416 292.381 295.272C292.365 295.16 292.333 295 292.285 294.84C291.965 293.704 290.765 292.776 289.149 292.776C287.597 292.776 286.429 293.656 286.045 294.968C285.917 295.464 285.837 296.04 285.837 296.92C285.837 297.736 285.885 298.36 286.045 298.904C286.445 300.248 287.581 301.128 289.149 301.128ZM297.765 292.792C296.837 292.792 296.085 293.112 295.621 293.752C295.589 293.816 295.541 293.768 295.541 293.704V290.008C295.541 289.88 295.461 289.8 295.333 289.8H294.613C294.485 289.8 294.405 289.88 294.405 290.008V300.792C294.405 300.92 294.485 301 294.613 301H295.333C295.461 301 295.541 300.92 295.541 300.792V295.464C295.653 294.456 296.421 293.784 297.509 293.784C298.645 293.784 299.413 294.6 299.413 295.784V300.792C299.413 300.92 299.493 301 299.621 301H300.341C300.469 301 300.549 300.92 300.549 300.792V295.56C300.549 293.88 299.445 292.792 297.765 292.792ZM125.743 327.128C127.263 327.128 128.431 326.28 128.847 324.904C129.007 324.376 129.071 323.704 129.071 322.936C129.071 322.184 129.007 321.512 128.847 320.968C128.447 319.624 127.279 318.776 125.743 318.776C124.159 318.776 123.007 319.624 122.591 320.984C122.447 321.496 122.383 322.152 122.383 322.936C122.383 323.704 122.447 324.376 122.607 324.904C123.023 326.28 124.175 327.128 125.743 327.128ZM125.743 326.136C124.671 326.136 123.903 325.528 123.663 324.568C123.567 324.216 123.535 323.64 123.535 322.952C123.535 322.28 123.567 321.688 123.663 321.336C123.919 320.392 124.671 319.768 125.711 319.768C126.783 319.768 127.551 320.392 127.791 321.336C127.887 321.688 127.919 322.248 127.919 322.952C127.919 323.592 127.887 324.184 127.791 324.568C127.535 325.528 126.767 326.136 125.743 326.136ZM134.48 316.792H134.8C134.928 316.792 135.008 316.712 135.008 316.584V316.008C135.008 315.88 134.928 315.8 134.8 315.8H134.384C132.4 315.8 131.84 316.552 131.84 318.456V318.824C131.84 318.872 131.808 318.904 131.76 318.904H130.752C130.624 318.904 130.544 318.984 130.544 319.112V319.736C130.544 319.864 130.624 319.944 130.752 319.944H131.76C131.808 319.944 131.84 319.976 131.84 320.024V326.792C131.84 326.92 131.92 327 132.048 327H132.752C132.88 327 132.96 326.92 132.96 326.792V320.024C132.96 319.976 132.992 319.944 133.04 319.944H134.768C134.896 319.944 134.976 319.864 134.976 319.736V319.112C134.976 318.984 134.896 318.904 134.768 318.904H133.04C132.992 318.904 132.96 318.872 132.96 318.824V318.52C132.96 317.304 133.264 316.792 134.48 316.792ZM143.29 327.128C144.81 327.128 145.978 326.28 146.394 324.904C146.554 324.376 146.618 323.704 146.618 322.936C146.618 322.184 146.554 321.512 146.394 320.968C145.994 319.624 144.826 318.776 143.29 318.776C141.706 318.776 140.554 319.624 140.138 320.984C139.994 321.496 139.93 322.152 139.93 322.936C139.93 323.704 139.994 324.376 140.154 324.904C140.57 326.28 141.722 327.128 143.29 327.128ZM143.29 326.136C142.218 326.136 141.45 325.528 141.21 324.568C141.114 324.216 141.082 323.64 141.082 322.952C141.082 322.28 141.114 321.688 141.21 321.336C141.466 320.392 142.218 319.768 143.258 319.768C144.33 319.768 145.098 320.392 145.338 321.336C145.434 321.688 145.466 322.248 145.466 322.952C145.466 323.592 145.434 324.184 145.338 324.568C145.082 325.528 144.314 326.136 143.29 326.136ZM153.817 319.112V324.136C153.817 325.32 153.049 326.12 151.833 326.12C150.649 326.12 149.929 325.336 149.929 324.136V319.112C149.929 318.984 149.849 318.904 149.721 318.904H149.001C148.873 318.904 148.793 318.984 148.793 319.112V324.472C148.793 326.184 150.089 327.112 151.609 327.112C152.585 327.112 153.289 326.76 153.721 326.152C153.769 326.088 153.817 326.12 153.817 326.184V326.792C153.817 326.92 153.897 327 154.025 327H154.745C154.873 327 154.953 326.92 154.953 326.792V319.112C154.953 318.984 154.873 318.904 154.745 318.904H154.025C153.897 318.904 153.817 318.984 153.817 319.112ZM160.763 318.824C159.835 318.824 159.147 319.304 158.715 320.04C158.683 320.104 158.635 320.088 158.635 320.008V319.112C158.635 318.984 158.555 318.904 158.427 318.904H157.707C157.579 318.904 157.499 318.984 157.499 319.112V326.792C157.499 326.92 157.579 327 157.707 327H158.427C158.555 327 158.635 326.92 158.635 326.792V322.12C158.635 320.92 159.451 320.056 160.555 320.024C160.891 320.008 161.147 320.04 161.339 320.104C161.483 320.152 161.563 320.104 161.595 319.976L161.755 319.272C161.787 319.16 161.755 319.064 161.643 319.016C161.435 318.904 161.163 318.824 160.763 318.824ZM169.794 318.824C168.866 318.824 168.178 319.304 167.746 320.04C167.714 320.104 167.666 320.088 167.666 320.008V319.112C167.666 318.984 167.586 318.904 167.458 318.904H166.738C166.61 318.904 166.53 318.984 166.53 319.112V326.792C166.53 326.92 166.61 327 166.738 327H167.458C167.586 327 167.666 326.92 167.666 326.792V322.12C167.666 320.92 168.482 320.056 169.586 320.024C169.922 320.008 170.178 320.04 170.37 320.104C170.514 320.152 170.594 320.104 170.626 319.976L170.786 319.272C170.818 319.16 170.786 319.064 170.674 319.016C170.466 318.904 170.194 318.824 169.794 318.824ZM175.384 327.128C176.904 327.128 178.072 326.28 178.488 324.904C178.648 324.376 178.712 323.704 178.712 322.936C178.712 322.184 178.648 321.512 178.488 320.968C178.088 319.624 176.92 318.776 175.384 318.776C173.8 318.776 172.648 319.624 172.232 320.984C172.088 321.496 172.024 322.152 172.024 322.936C172.024 323.704 172.088 324.376 172.248 324.904C172.664 326.28 173.816 327.128 175.384 327.128ZM175.384 326.136C174.312 326.136 173.544 325.528 173.304 324.568C173.208 324.216 173.176 323.64 173.176 322.952C173.176 322.28 173.208 321.688 173.304 321.336C173.56 320.392 174.312 319.768 175.352 319.768C176.424 319.768 177.192 320.392 177.432 321.336C177.528 321.688 177.56 322.248 177.56 322.952C177.56 323.592 177.528 324.184 177.432 324.568C177.176 325.528 176.408 326.136 175.384 326.136ZM183.814 318.776C182.166 318.776 180.982 319.576 180.774 320.744C180.758 320.856 180.838 320.904 180.966 320.92L181.75 321.016C181.878 321.032 181.958 320.984 181.99 320.856C182.166 320.184 182.822 319.768 183.83 319.768C185.158 319.768 185.702 320.488 185.702 321.528V322.12C185.702 322.168 185.67 322.2 185.622 322.2H183.766C181.686 322.2 180.47 323.192 180.47 324.792C180.47 326.472 181.75 327.128 183.11 327.128C184.118 327.128 185.014 326.808 185.606 326.184C185.654 326.12 185.702 326.152 185.702 326.216V326.792C185.702 326.92 185.782 327 185.91 327H186.63C186.758 327 186.838 326.92 186.838 326.792V321.464C186.838 319.88 185.766 318.776 183.814 318.776ZM183.366 326.152C182.39 326.152 181.606 325.704 181.606 324.728C181.606 323.688 182.55 323.096 183.942 323.096H185.622C185.67 323.096 185.702 323.128 185.702 323.176V324.408C185.702 325.528 184.55 326.152 183.366 326.152ZM191.842 327.08C193.65 327.08 194.818 326.168 194.818 324.792C194.818 323.208 193.266 322.776 191.906 322.392C190.818 322.072 189.954 321.784 189.954 320.984C189.954 320.216 190.69 319.752 191.762 319.752C192.962 319.752 193.682 320.328 193.682 321.032V321.128C193.682 321.192 193.762 321.24 193.89 321.24H194.546C194.674 321.24 194.754 321.16 194.754 321.032C194.754 319.768 193.57 318.824 191.778 318.824C190.05 318.824 188.85 319.688 188.85 321.064C188.85 322.584 190.322 323.048 191.698 323.448C192.754 323.768 193.682 324.008 193.682 324.872C193.682 325.624 192.946 326.2 191.826 326.2C190.674 326.2 189.906 325.56 189.906 324.888V324.744C189.906 324.664 189.826 324.6 189.698 324.6H189.01C188.882 324.6 188.802 324.68 188.802 324.808V324.952C188.802 326.12 190.002 327.08 191.842 327.08ZM200.521 319.64V319.112C200.521 318.984 200.441 318.904 200.313 318.904H198.569C198.521 318.904 198.489 318.872 198.489 318.824V317.032C198.489 316.904 198.409 316.824 198.281 316.824H197.593C197.465 316.824 197.385 316.904 197.385 317.032V318.824C197.385 318.872 197.353 318.904 197.305 318.904H196.393C196.265 318.904 196.185 318.984 196.185 319.112V319.64C196.185 319.768 196.265 319.848 196.393 319.848H197.305C197.353 319.848 197.385 319.88 197.385 319.928V324.952C197.385 326.616 198.329 326.984 199.721 326.984H200.265C200.409 326.968 200.473 326.888 200.473 326.76V326.2C200.473 326.072 200.393 325.992 200.265 325.992H199.913C198.953 325.992 198.489 325.64 198.489 324.6V319.928C198.489 319.88 198.521 319.848 198.569 319.848H200.313C200.441 319.848 200.521 319.768 200.521 319.64ZM205.635 326.152C204.467 326.152 203.683 325.512 203.459 324.584C203.395 324.344 203.363 323.944 203.363 323.416C203.363 323.368 203.395 323.336 203.443 323.336H208.563C208.691 323.336 208.771 323.256 208.771 323.128C208.771 322.376 208.755 321.96 208.675 321.528C208.387 319.848 207.379 318.776 205.475 318.776C203.891 318.776 202.739 319.688 202.387 321.064C202.259 321.56 202.243 322.104 202.243 322.92C202.243 323.816 202.323 324.536 202.547 325.128C202.979 326.36 204.019 327.128 205.539 327.128C206.979 327.128 208.019 326.424 208.515 325.384C208.579 325.272 208.531 325.176 208.419 325.112L207.955 324.856C207.843 324.792 207.731 324.84 207.683 324.952C207.315 325.672 206.627 326.136 205.635 326.152ZM205.475 319.768C206.579 319.768 207.315 320.408 207.539 321.336C207.587 321.56 207.619 321.928 207.635 322.36C207.635 322.408 207.603 322.44 207.555 322.44H203.443C203.395 322.44 203.363 322.408 203.363 322.36C203.379 321.896 203.411 321.528 203.491 321.272C203.699 320.392 204.387 319.768 205.475 319.768ZM214.294 318.824C213.366 318.824 212.678 319.304 212.246 320.04C212.214 320.104 212.166 320.088 212.166 320.008V319.112C212.166 318.984 212.086 318.904 211.958 318.904H211.238C211.11 318.904 211.03 318.984 211.03 319.112V326.792C211.03 326.92 211.11 327 211.238 327H211.958C212.086 327 212.166 326.92 212.166 326.792V322.12C212.166 320.92 212.982 320.056 214.086 320.024C214.422 320.008 214.678 320.04 214.87 320.104C215.014 320.152 215.094 320.104 215.126 319.976L215.286 319.272C215.318 319.16 215.286 319.064 215.174 319.016C214.966 318.904 214.694 318.824 214.294 318.824ZM219.467 327.08C221.275 327.08 222.443 326.168 222.443 324.792C222.443 323.208 220.891 322.776 219.531 322.392C218.443 322.072 217.579 321.784 217.579 320.984C217.579 320.216 218.315 319.752 219.387 319.752C220.587 319.752 221.307 320.328 221.307 321.032V321.128C221.307 321.192 221.387 321.24 221.515 321.24H222.171C222.299 321.24 222.379 321.16 222.379 321.032C222.379 319.768 221.195 318.824 219.403 318.824C217.675 318.824 216.475 319.688 216.475 321.064C216.475 322.584 217.947 323.048 219.323 323.448C220.379 323.768 221.307 324.008 221.307 324.872C221.307 325.624 220.571 326.2 219.451 326.2C218.299 326.2 217.531 325.56 217.531 324.888V324.744C217.531 324.664 217.451 324.6 217.323 324.6H216.635C216.507 324.6 216.427 324.68 216.427 324.808V324.952C216.427 326.12 217.627 327.08 219.467 327.08ZM225.41 326.952C225.954 326.952 226.402 326.536 226.402 326.008C226.402 325.48 225.922 325.064 225.41 325.064C224.882 325.064 224.418 325.48 224.418 326.008C224.418 326.536 224.834 326.952 225.41 326.952Z" fill="#FEFCF7"/>
<path fill-rule="evenodd" clip-rule="evenodd" d="M194.048 85.1037C201.308 92.4657 205.838 101.745 206.806 111.226C207.795 120.883 204.982 129.604 198.894 135.774C193.6 141.142 186.411 144 178.371 144C177.159 144 175.93 143.933 174.683 143.802C165.333 142.821 156.183 138.226 148.924 130.864C133.81 115.537 131.635 92.8122 144.078 80.1941C156.512 67.5717 178.93 69.7812 194.048 85.1037ZM168.528 112.036C174.359 113.656 179.728 115.173 184.681 119.007C188.564 122.014 191.33 125.836 194.127 129.701C195.415 131.481 196.709 133.269 198.122 134.991C196.489 120.659 189.384 108.346 175.025 104.121C174.801 104.055 174.578 103.99 174.355 103.924C168.077 102.084 162.344 100.403 157.12 96.0479C153.76 93.2453 151.287 89.7667 148.799 86.2682C147.528 84.4806 146.253 82.6878 144.855 80.9773C146.559 95.5347 153.849 107.955 168.528 112.036Z" fill="#FDD6BA"/>
</svg>
