<svg width="350" height="382" viewBox="0 0 350 382" fill="none" xmlns="http://www.w3.org/2000/svg">
<rect width="350" height="382" rx="8" fill="#0E8784"/>
<path d="M100.491 208.2C100.859 208.2 101.171 208.168 101.427 208.104C101.683 208.04 101.915 207.98 102.123 207.924C102.339 207.86 102.551 207.828 102.759 207.828C103.143 207.828 103.431 207.924 103.623 208.116C103.815 208.3 103.975 208.616 104.103 209.064L105.159 212.712C105.231 212.96 105.191 213.172 105.039 213.348C104.895 213.516 104.691 213.62 104.427 213.66C104.219 213.692 104.011 213.672 103.803 213.6C103.595 213.52 103.423 213.344 103.287 213.072C102.855 212.208 102.435 211.552 102.027 211.104C101.619 210.648 101.199 210.336 100.767 210.168C100.335 210 99.8551 209.916 99.3271 209.916H98.0311V222.336C98.0311 222.536 98.0751 222.708 98.1631 222.852C98.2591 222.988 98.4191 223.08 98.6431 223.128L99.3631 223.284C99.6191 223.34 99.8031 223.44 99.9151 223.584C100.027 223.72 100.083 223.92 100.083 224.184C100.083 224.432 99.9991 224.632 99.8311 224.784C99.6631 224.928 99.4031 225 99.0511 225H91.8031C91.4511 225 91.1911 224.928 91.0231 224.784C90.8551 224.632 90.7711 224.432 90.7711 224.184C90.7711 223.752 90.9791 223.456 91.3951 223.296L91.8511 223.128C92.0591 223.048 92.2111 222.948 92.3071 222.828C92.4111 222.7 92.4631 222.536 92.4631 222.336V210.864C92.4631 210.664 92.4111 210.504 92.3071 210.384C92.2111 210.256 92.0591 210.152 91.8511 210.072L91.3951 209.904C90.9791 209.744 90.7711 209.448 90.7711 209.016C90.7711 208.76 90.8551 208.56 91.0231 208.416C91.1911 208.272 91.4511 208.2 91.8031 208.2H100.491ZM96.0271 216.132H99.2671C99.7711 216.132 100.131 216.032 100.347 215.832C100.563 215.632 100.771 215.232 100.971 214.632C101.051 214.392 101.163 214.224 101.307 214.128C101.451 214.032 101.619 213.984 101.811 213.984C102.275 213.984 102.559 214.204 102.663 214.644L103.599 218.46C103.671 218.748 103.663 218.972 103.575 219.132C103.487 219.292 103.339 219.412 103.131 219.492C102.907 219.572 102.695 219.58 102.495 219.516C102.303 219.444 102.119 219.292 101.943 219.06C101.711 218.732 101.491 218.48 101.283 218.304C101.083 218.12 100.851 217.992 100.587 217.92C100.323 217.848 99.9791 217.812 99.5551 217.812H96.0271V216.132ZM111.779 218.448C111.779 217.224 111.939 216.216 112.259 215.424C112.579 214.624 113.003 214.032 113.531 213.648C114.067 213.264 114.651 213.072 115.283 213.072C116.131 213.072 116.779 213.328 117.227 213.84C117.683 214.344 117.911 215.108 117.911 216.132C117.911 217.18 117.699 217.952 117.275 218.448C116.859 218.944 116.315 219.192 115.643 219.192C114.963 219.192 114.451 219.02 114.107 218.676C113.771 218.324 113.603 217.84 113.603 217.224V216.72C113.595 216.512 113.547 216.356 113.459 216.252C113.379 216.14 113.251 216.084 113.075 216.084C112.915 216.084 112.771 216.156 112.643 216.3C112.523 216.436 112.427 216.664 112.355 216.984C112.283 217.296 112.247 217.72 112.247 218.256L111.779 218.448ZM111.911 214.152L112.247 216.66V222.48C112.247 222.76 112.287 222.96 112.367 223.08C112.447 223.192 112.631 223.276 112.919 223.332L113.831 223.512C114.071 223.56 114.247 223.644 114.359 223.764C114.471 223.884 114.527 224.052 114.527 224.268C114.527 224.5 114.447 224.68 114.287 224.808C114.135 224.936 113.907 225 113.603 225H106.967C106.647 225 106.415 224.936 106.271 224.808C106.127 224.68 106.055 224.504 106.055 224.28C106.055 224.12 106.095 223.98 106.175 223.86C106.255 223.74 106.387 223.64 106.571 223.56L106.835 223.44C106.955 223.384 107.039 223.292 107.087 223.164C107.135 223.028 107.159 222.8 107.159 222.48V216.888C107.159 216.632 107.123 216.452 107.051 216.348C106.987 216.236 106.887 216.16 106.751 216.12L106.487 216.036C106.319 215.98 106.195 215.9 106.115 215.796C106.043 215.692 106.007 215.56 106.007 215.4C106.007 215.208 106.059 215.056 106.163 214.944C106.275 214.824 106.471 214.712 106.751 214.608L109.331 213.6C109.899 213.376 110.307 213.232 110.555 213.168C110.803 213.104 110.995 213.072 111.131 213.072C111.355 213.072 111.527 213.156 111.647 213.324C111.767 213.484 111.855 213.76 111.911 214.152ZM131.055 217.704C131.055 218.264 130.903 218.7 130.599 219.012C130.295 219.316 129.859 219.468 129.291 219.468H122.175V218.22H125.379C125.819 218.22 126.039 218.012 126.039 217.596C126.039 216.588 125.923 215.868 125.691 215.436C125.459 215.004 125.151 214.788 124.767 214.788C124.487 214.788 124.235 214.892 124.011 215.1C123.787 215.308 123.607 215.628 123.471 216.06C123.343 216.484 123.279 217.024 123.279 217.68C123.279 219.136 123.607 220.204 124.263 220.884C124.919 221.556 125.815 221.892 126.951 221.892C127.479 221.892 127.959 221.832 128.391 221.712C128.823 221.592 129.247 221.348 129.663 220.98C129.895 220.772 130.071 220.632 130.191 220.56C130.311 220.488 130.427 220.452 130.539 220.452C130.699 220.452 130.815 220.532 130.887 220.692C130.967 220.852 131.007 221.048 131.007 221.28C131.007 221.992 130.763 222.66 130.275 223.284C129.795 223.9 129.123 224.396 128.259 224.772C127.403 225.148 126.403 225.336 125.259 225.336C124.035 225.336 122.935 225.096 121.959 224.616C120.983 224.128 120.211 223.452 119.643 222.588C119.075 221.716 118.791 220.7 118.791 219.54C118.791 218.236 119.051 217.1 119.571 216.132C120.091 215.164 120.847 214.412 121.839 213.876C122.839 213.34 124.043 213.072 125.451 213.072C126.691 213.072 127.727 213.272 128.559 213.672C129.391 214.072 130.015 214.62 130.431 215.316C130.847 216.012 131.055 216.808 131.055 217.704ZM144.485 217.704C144.485 218.264 144.333 218.7 144.029 219.012C143.725 219.316 143.289 219.468 142.721 219.468H135.605V218.22H138.809C139.249 218.22 139.469 218.012 139.469 217.596C139.469 216.588 139.353 215.868 139.121 215.436C138.889 215.004 138.581 214.788 138.197 214.788C137.917 214.788 137.665 214.892 137.441 215.1C137.217 215.308 137.037 215.628 136.901 216.06C136.773 216.484 136.709 217.024 136.709 217.68C136.709 219.136 137.037 220.204 137.693 220.884C138.349 221.556 139.245 221.892 140.381 221.892C140.909 221.892 141.389 221.832 141.821 221.712C142.253 221.592 142.677 221.348 143.093 220.98C143.325 220.772 143.501 220.632 143.621 220.56C143.741 220.488 143.857 220.452 143.969 220.452C144.129 220.452 144.245 220.532 144.317 220.692C144.397 220.852 144.437 221.048 144.437 221.28C144.437 221.992 144.193 222.66 143.705 223.284C143.225 223.9 142.553 224.396 141.689 224.772C140.833 225.148 139.833 225.336 138.689 225.336C137.465 225.336 136.365 225.096 135.389 224.616C134.413 224.128 133.641 223.452 133.073 222.588C132.505 221.716 132.221 220.7 132.221 219.54C132.221 218.236 132.481 217.1 133.001 216.132C133.521 215.164 134.277 214.412 135.269 213.876C136.269 213.34 137.473 213.072 138.881 213.072C140.121 213.072 141.157 213.272 141.989 213.672C142.821 214.072 143.445 214.62 143.861 215.316C144.277 216.012 144.485 216.808 144.485 217.704ZM156.38 214.596C155.908 214.596 155.556 214.696 155.324 214.896C155.1 215.096 154.988 215.336 154.988 215.616C154.988 215.784 155.02 215.944 155.084 216.096C155.148 216.24 155.296 216.372 155.528 216.492C155.76 216.612 156.128 216.716 156.632 216.804C158.12 217.052 159.252 217.384 160.028 217.8C160.804 218.208 161.332 218.692 161.612 219.252C161.9 219.812 162.044 220.448 162.044 221.16C162.044 222.464 161.588 223.488 160.676 224.232C159.772 224.968 158.432 225.336 156.656 225.336C156.048 225.336 155.56 225.288 155.192 225.192C154.832 225.096 154.54 225 154.316 224.904C154.1 224.808 153.904 224.76 153.728 224.76C153.536 224.76 153.376 224.808 153.248 224.904C153.12 225 152.992 225.096 152.864 225.192C152.736 225.288 152.572 225.336 152.372 225.336C152.172 225.336 152.02 225.276 151.916 225.156C151.82 225.044 151.728 224.84 151.64 224.544L151.016 222.42C150.888 221.996 150.852 221.664 150.908 221.424C150.964 221.176 151.116 221.004 151.364 220.908C151.62 220.812 151.844 220.808 152.036 220.896C152.228 220.984 152.412 221.16 152.588 221.424C152.956 221.96 153.336 222.404 153.728 222.756C154.128 223.108 154.544 223.372 154.976 223.548C155.416 223.724 155.868 223.812 156.332 223.812C156.868 223.812 157.268 223.712 157.532 223.512C157.804 223.312 157.94 223.044 157.94 222.708C157.94 222.5 157.884 222.32 157.772 222.168C157.668 222.016 157.448 221.88 157.112 221.76C156.784 221.632 156.284 221.508 155.612 221.388C154.452 221.18 153.528 220.884 152.84 220.5C152.16 220.108 151.672 219.628 151.376 219.06C151.08 218.484 150.932 217.816 150.932 217.056C150.932 216.248 151.148 215.548 151.58 214.956C152.02 214.356 152.616 213.892 153.368 213.564C154.128 213.236 154.992 213.072 155.96 213.072C156.592 213.072 157.088 213.124 157.448 213.228C157.816 213.324 158.112 213.424 158.336 213.528C158.568 213.624 158.796 213.672 159.02 213.672C159.236 213.672 159.416 213.624 159.56 213.528C159.712 213.424 159.86 213.324 160.004 213.228C160.148 213.124 160.316 213.072 160.508 213.072C160.684 213.072 160.832 213.136 160.952 213.264C161.072 213.392 161.16 213.612 161.216 213.924L161.588 215.976C161.66 216.384 161.664 216.692 161.6 216.9C161.544 217.1 161.4 217.248 161.168 217.344C160.92 217.448 160.7 217.448 160.508 217.344C160.316 217.232 160.12 217.036 159.92 216.756C159.36 215.948 158.772 215.388 158.156 215.076C157.548 214.756 156.956 214.596 156.38 214.596ZM169.214 217.08L168.494 216.312L168.854 215.976C169.982 214.896 170.962 214.144 171.794 213.72C172.626 213.288 173.39 213.072 174.086 213.072C175.158 213.072 176.022 213.428 176.678 214.14C177.334 214.844 177.662 215.768 177.662 216.912V222.48C177.662 222.8 177.686 223.028 177.734 223.164C177.782 223.292 177.866 223.384 177.986 223.44L178.25 223.56C178.434 223.64 178.566 223.74 178.646 223.86C178.726 223.98 178.766 224.12 178.766 224.28C178.766 224.504 178.694 224.68 178.55 224.808C178.406 224.936 178.174 225 177.854 225H172.538C171.922 225 171.614 224.744 171.614 224.232C171.614 223.944 171.746 223.724 172.01 223.572L172.25 223.44C172.37 223.376 172.454 223.28 172.502 223.152C172.55 223.024 172.574 222.8 172.574 222.48V217.632C172.574 217.12 172.454 216.736 172.214 216.48C171.982 216.224 171.654 216.096 171.23 216.096C170.966 216.096 170.69 216.148 170.402 216.252C170.114 216.356 169.858 216.508 169.634 216.708L169.214 217.08ZM169.646 207.96V222.48C169.646 222.8 169.67 223.024 169.718 223.152C169.766 223.28 169.85 223.376 169.97 223.44L170.21 223.572C170.474 223.724 170.606 223.944 170.606 224.232C170.606 224.744 170.298 225 169.682 225H164.366C164.046 225 163.814 224.936 163.67 224.808C163.526 224.68 163.454 224.504 163.454 224.28C163.454 224.12 163.494 223.98 163.574 223.86C163.654 223.74 163.786 223.64 163.97 223.56L164.234 223.44C164.354 223.384 164.438 223.292 164.486 223.164C164.534 223.028 164.558 222.8 164.558 222.48V210.648C164.558 210.392 164.522 210.212 164.45 210.108C164.386 209.996 164.286 209.92 164.15 209.88L163.886 209.796C163.718 209.74 163.594 209.66 163.514 209.556C163.442 209.452 163.406 209.32 163.406 209.16C163.406 208.968 163.458 208.816 163.562 208.704C163.666 208.592 163.862 208.48 164.15 208.368L166.814 207.336C167.222 207.176 167.55 207.06 167.798 206.988C168.054 206.916 168.302 206.88 168.542 206.88C168.902 206.88 169.174 206.984 169.358 207.192C169.55 207.392 169.646 207.648 169.646 207.96ZM186.099 214.152V222.48C186.099 222.8 186.123 223.028 186.171 223.164C186.219 223.292 186.303 223.384 186.423 223.44L186.687 223.56C186.871 223.64 187.003 223.74 187.083 223.86C187.163 223.98 187.203 224.12 187.203 224.28C187.203 224.504 187.131 224.68 186.987 224.808C186.843 224.936 186.611 225 186.291 225H180.819C180.499 225 180.267 224.936 180.123 224.808C179.979 224.68 179.907 224.504 179.907 224.28C179.907 224.12 179.947 223.98 180.027 223.86C180.107 223.74 180.239 223.64 180.423 223.56L180.687 223.44C180.807 223.384 180.891 223.292 180.939 223.164C180.987 223.028 181.011 222.8 181.011 222.48V216.84C181.011 216.584 180.975 216.404 180.903 216.3C180.839 216.188 180.739 216.112 180.603 216.072L180.339 215.988C180.171 215.932 180.047 215.852 179.967 215.748C179.895 215.644 179.859 215.512 179.859 215.352C179.859 215.16 179.911 215.008 180.015 214.896C180.119 214.784 180.315 214.672 180.603 214.56L183.267 213.528C183.699 213.36 184.039 213.244 184.287 213.18C184.535 213.108 184.755 213.072 184.947 213.072C185.331 213.072 185.619 213.176 185.811 213.384C186.003 213.584 186.099 213.84 186.099 214.152ZM183.291 212.016C182.395 212.016 181.687 211.808 181.167 211.392C180.647 210.976 180.387 210.408 180.387 209.688C180.387 208.976 180.647 208.416 181.167 208.008C181.687 207.6 182.395 207.396 183.291 207.396C184.187 207.396 184.895 207.6 185.415 208.008C185.935 208.416 186.195 208.976 186.195 209.688C186.195 210.408 185.935 210.976 185.415 211.392C184.895 211.808 184.187 212.016 183.291 212.016ZM194.296 214.152V215.232L194.536 215.688V228.072C194.536 228.392 194.56 228.616 194.608 228.744C194.656 228.88 194.74 228.976 194.86 229.032L195.124 229.152C195.308 229.232 195.44 229.332 195.52 229.452C195.6 229.572 195.64 229.712 195.64 229.872C195.64 230.096 195.568 230.272 195.424 230.4C195.28 230.528 195.048 230.592 194.728 230.592H189.256C188.936 230.592 188.704 230.528 188.56 230.4C188.416 230.272 188.344 230.096 188.344 229.872C188.344 229.712 188.384 229.572 188.464 229.452C188.544 229.332 188.676 229.232 188.86 229.152L189.124 229.032C189.244 228.976 189.328 228.88 189.376 228.744C189.424 228.616 189.448 228.392 189.448 228.072V216.84C189.448 216.584 189.412 216.404 189.34 216.3C189.276 216.188 189.176 216.112 189.04 216.072L188.776 215.988C188.608 215.932 188.484 215.852 188.404 215.748C188.332 215.644 188.296 215.512 188.296 215.352C188.296 215.16 188.348 215.016 188.452 214.92C188.556 214.816 188.752 214.7 189.04 214.572L191.464 213.528C191.856 213.36 192.18 213.244 192.436 213.18C192.692 213.108 192.924 213.072 193.132 213.072C193.524 213.072 193.816 213.176 194.008 213.384C194.2 213.584 194.296 213.84 194.296 214.152ZM193.636 217.488L192.784 216.672C193.472 215.552 194.244 214.672 195.1 214.032C195.956 213.392 196.936 213.072 198.04 213.072C198.992 213.072 199.844 213.316 200.596 213.804C201.348 214.292 201.94 214.968 202.372 215.832C202.812 216.688 203.032 217.68 203.032 218.808C203.032 220.112 202.764 221.256 202.228 222.24C201.692 223.216 200.96 223.976 200.032 224.52C199.104 225.064 198.056 225.336 196.888 225.336C195.92 225.336 195.072 225.132 194.344 224.724C193.624 224.308 193 223.68 192.472 222.84L193.78 221.952C194.148 222.48 194.496 222.856 194.824 223.08C195.152 223.296 195.508 223.404 195.892 223.404C196.268 223.404 196.596 223.268 196.876 222.996C197.164 222.724 197.384 222.288 197.536 221.688C197.696 221.088 197.776 220.3 197.776 219.324C197.776 218.428 197.692 217.708 197.524 217.164C197.364 216.612 197.144 216.212 196.864 215.964C196.584 215.708 196.26 215.58 195.892 215.58C195.452 215.58 195.048 215.732 194.68 216.036C194.312 216.332 193.964 216.816 193.636 217.488ZM210.257 214.152V215.232L210.497 215.688V228.072C210.497 228.392 210.521 228.616 210.569 228.744C210.617 228.88 210.701 228.976 210.821 229.032L211.085 229.152C211.269 229.232 211.401 229.332 211.481 229.452C211.561 229.572 211.601 229.712 211.601 229.872C211.601 230.096 211.529 230.272 211.385 230.4C211.241 230.528 211.009 230.592 210.689 230.592H205.217C204.897 230.592 204.665 230.528 204.521 230.4C204.377 230.272 204.305 230.096 204.305 229.872C204.305 229.712 204.345 229.572 204.425 229.452C204.505 229.332 204.637 229.232 204.821 229.152L205.085 229.032C205.205 228.976 205.289 228.88 205.337 228.744C205.385 228.616 205.409 228.392 205.409 228.072V216.84C205.409 216.584 205.373 216.404 205.301 216.3C205.237 216.188 205.137 216.112 205.001 216.072L204.737 215.988C204.569 215.932 204.445 215.852 204.365 215.748C204.293 215.644 204.257 215.512 204.257 215.352C204.257 215.16 204.309 215.016 204.413 214.92C204.517 214.816 204.713 214.7 205.001 214.572L207.425 213.528C207.817 213.36 208.141 213.244 208.397 213.18C208.653 213.108 208.885 213.072 209.093 213.072C209.485 213.072 209.777 213.176 209.969 213.384C210.161 213.584 210.257 213.84 210.257 214.152ZM209.597 217.488L208.745 216.672C209.433 215.552 210.205 214.672 211.061 214.032C211.917 213.392 212.897 213.072 214.001 213.072C214.953 213.072 215.805 213.316 216.557 213.804C217.309 214.292 217.901 214.968 218.333 215.832C218.773 216.688 218.993 217.68 218.993 218.808C218.993 220.112 218.725 221.256 218.189 222.24C217.653 223.216 216.921 223.976 215.993 224.52C215.065 225.064 214.017 225.336 212.849 225.336C211.881 225.336 211.033 225.132 210.305 224.724C209.585 224.308 208.961 223.68 208.433 222.84L209.741 221.952C210.109 222.48 210.457 222.856 210.785 223.08C211.113 223.296 211.469 223.404 211.853 223.404C212.229 223.404 212.557 223.268 212.837 222.996C213.125 222.724 213.345 222.288 213.497 221.688C213.657 221.088 213.737 220.3 213.737 219.324C213.737 218.428 213.653 217.708 213.485 217.164C213.325 216.612 213.105 216.212 212.825 215.964C212.545 215.708 212.221 215.58 211.853 215.58C211.413 215.58 211.009 215.732 210.641 216.036C210.273 216.332 209.925 216.816 209.597 217.488ZM226.458 214.152V222.48C226.458 222.8 226.482 223.028 226.53 223.164C226.578 223.292 226.662 223.384 226.782 223.44L227.046 223.56C227.23 223.64 227.362 223.74 227.442 223.86C227.522 223.98 227.562 224.12 227.562 224.28C227.562 224.504 227.49 224.68 227.346 224.808C227.202 224.936 226.97 225 226.65 225H221.178C220.858 225 220.626 224.936 220.482 224.808C220.338 224.68 220.266 224.504 220.266 224.28C220.266 224.12 220.306 223.98 220.386 223.86C220.466 223.74 220.598 223.64 220.782 223.56L221.046 223.44C221.166 223.384 221.25 223.292 221.298 223.164C221.346 223.028 221.37 222.8 221.37 222.48V216.84C221.37 216.584 221.334 216.404 221.262 216.3C221.198 216.188 221.098 216.112 220.962 216.072L220.698 215.988C220.53 215.932 220.406 215.852 220.326 215.748C220.254 215.644 220.218 215.512 220.218 215.352C220.218 215.16 220.27 215.008 220.374 214.896C220.478 214.784 220.674 214.672 220.962 214.56L223.626 213.528C224.058 213.36 224.398 213.244 224.646 213.18C224.894 213.108 225.114 213.072 225.306 213.072C225.69 213.072 225.978 213.176 226.17 213.384C226.362 213.584 226.458 213.84 226.458 214.152ZM223.65 212.016C222.754 212.016 222.046 211.808 221.526 211.392C221.006 210.976 220.746 210.408 220.746 209.688C220.746 208.976 221.006 208.416 221.526 208.008C222.046 207.6 222.754 207.396 223.65 207.396C224.546 207.396 225.254 207.6 225.774 208.008C226.294 208.416 226.554 208.976 226.554 209.688C226.554 210.408 226.294 210.976 225.774 211.392C225.254 211.808 224.546 212.016 223.65 212.016ZM234.896 214.152V222.48C234.896 222.8 234.92 223.024 234.968 223.152C235.016 223.28 235.1 223.376 235.22 223.44L235.46 223.572C235.724 223.724 235.856 223.944 235.856 224.232C235.856 224.744 235.548 225 234.932 225H229.616C229.296 225 229.064 224.936 228.92 224.808C228.776 224.68 228.704 224.504 228.704 224.28C228.704 224.12 228.744 223.98 228.824 223.86C228.904 223.74 229.036 223.64 229.22 223.56L229.484 223.44C229.604 223.384 229.688 223.292 229.736 223.164C229.784 223.028 229.808 222.8 229.808 222.48V216.84C229.808 216.584 229.772 216.404 229.7 216.3C229.636 216.188 229.536 216.112 229.4 216.072L229.136 215.988C228.968 215.932 228.844 215.852 228.764 215.748C228.692 215.644 228.656 215.512 228.656 215.352C228.656 215.16 228.708 215.008 228.812 214.896C228.916 214.784 229.112 214.672 229.4 214.56L232.064 213.528C232.472 213.368 232.8 213.252 233.048 213.18C233.304 213.108 233.552 213.072 233.792 213.072C234.152 213.072 234.424 213.176 234.608 213.384C234.8 213.584 234.896 213.84 234.896 214.152ZM234.464 217.08L233.744 216.312L234.104 215.976C235.232 214.896 236.212 214.144 237.044 213.72C237.876 213.288 238.64 213.072 239.336 213.072C240.408 213.072 241.272 213.428 241.928 214.14C242.584 214.844 242.912 215.768 242.912 216.912V222.48C242.912 222.8 242.936 223.028 242.984 223.164C243.032 223.292 243.116 223.384 243.236 223.44L243.5 223.56C243.684 223.64 243.816 223.74 243.896 223.86C243.976 223.98 244.016 224.12 244.016 224.28C244.016 224.504 243.944 224.68 243.8 224.808C243.656 224.936 243.424 225 243.104 225H237.788C237.172 225 236.864 224.744 236.864 224.232C236.864 223.944 236.996 223.724 237.26 223.572L237.5 223.44C237.62 223.376 237.704 223.28 237.752 223.152C237.8 223.024 237.824 222.8 237.824 222.48V217.632C237.824 217.12 237.704 216.736 237.464 216.48C237.232 216.224 236.904 216.096 236.48 216.096C236.216 216.096 235.94 216.148 235.652 216.252C235.364 216.356 235.108 216.508 234.884 216.708L234.464 217.08ZM253.809 223.212C252.713 223.1 251.925 223.004 251.445 222.924C250.965 222.844 250.665 222.768 250.545 222.696C250.433 222.624 250.377 222.552 250.377 222.48C250.377 222.408 250.409 222.344 250.473 222.288C250.537 222.224 250.637 222.168 250.773 222.12L250.653 221.88C249.557 221.904 248.697 222.036 248.073 222.276C247.457 222.508 247.017 222.812 246.753 223.188C246.497 223.556 246.369 223.964 246.369 224.412C246.369 224.86 246.493 225.236 246.741 225.54C246.989 225.852 247.441 226.112 248.097 226.32C248.753 226.528 249.697 226.704 250.929 226.848C251.921 226.968 252.701 227.08 253.269 227.184C253.837 227.296 254.237 227.424 254.469 227.568C254.709 227.72 254.829 227.916 254.829 228.156C254.829 228.404 254.749 228.612 254.589 228.78C254.437 228.948 254.165 229.072 253.773 229.152C253.381 229.24 252.821 229.284 252.093 229.284C250.837 229.284 249.969 229.1 249.489 228.732C249.009 228.372 248.769 227.876 248.769 227.244C248.769 227.084 248.789 226.928 248.829 226.776C248.877 226.632 248.933 226.524 248.997 226.452L248.913 226.08C247.401 226.248 246.365 226.536 245.805 226.944C245.253 227.36 244.977 227.848 244.977 228.408C244.977 228.904 245.157 229.336 245.517 229.704C245.877 230.08 246.509 230.368 247.413 230.568C248.317 230.776 249.577 230.88 251.193 230.88C253.833 230.88 255.841 230.484 257.217 229.692C258.593 228.9 259.281 227.888 259.281 226.656C259.281 225.952 259.097 225.372 258.729 224.916C258.369 224.452 257.789 224.088 256.989 223.824C256.189 223.552 255.129 223.348 253.809 223.212ZM253.533 214.332L254.625 214.404C254.881 213.764 255.101 213.328 255.285 213.096C255.469 212.864 255.713 212.748 256.017 212.748C256.313 212.748 256.541 212.816 256.701 212.952C256.861 213.088 257.001 213.248 257.121 213.432C257.249 213.616 257.401 213.776 257.577 213.912C257.761 214.048 258.025 214.116 258.369 214.116C258.865 214.116 259.265 213.932 259.569 213.564C259.873 213.188 260.025 212.696 260.025 212.088C260.025 211.424 259.829 210.916 259.437 210.564C259.045 210.212 258.541 210.036 257.925 210.036C257.133 210.036 256.385 210.3 255.681 210.828C254.985 211.356 254.413 212.172 253.965 213.276L253.533 214.332ZM258.237 217.44C258.237 216.624 257.997 215.892 257.517 215.244C257.045 214.596 256.349 214.084 255.429 213.708C254.509 213.332 253.381 213.144 252.045 213.144C250.645 213.144 249.441 213.344 248.433 213.744C247.425 214.144 246.653 214.704 246.117 215.424C245.581 216.144 245.313 216.98 245.313 217.932C245.313 218.74 245.549 219.472 246.021 220.128C246.501 220.776 247.201 221.288 248.121 221.664C249.049 222.04 250.177 222.228 251.505 222.228C252.913 222.228 254.117 222.028 255.117 221.628C256.125 221.228 256.897 220.668 257.433 219.948C257.969 219.228 258.237 218.392 258.237 217.44ZM251.157 214.548C251.549 214.468 251.885 214.66 252.165 215.124C252.445 215.588 252.689 216.352 252.897 217.416C253.105 218.48 253.169 219.28 253.089 219.816C253.009 220.352 252.773 220.66 252.381 220.74C252.125 220.788 251.889 220.72 251.673 220.536C251.465 220.352 251.277 220.04 251.109 219.6C250.941 219.152 250.785 218.576 250.641 217.872C250.505 217.16 250.429 216.568 250.413 216.096C250.405 215.624 250.461 215.26 250.581 215.004C250.709 214.748 250.901 214.596 251.157 214.548Z" fill="white"/>
<path d="M70.8675 275H71.5875C71.6995 275 71.7955 274.936 71.8275 274.824L74.0995 265.928C74.1155 265.864 74.1795 265.864 74.1955 265.928L76.4995 274.824C76.5315 274.936 76.6275 275 76.7395 275H77.5075C77.6195 275 77.6995 274.952 77.7315 274.824L80.7235 264.04C80.7555 263.896 80.6915 263.8 80.5475 263.8H79.8115C79.6995 263.8 79.6195 263.848 79.5875 263.976L77.1875 272.664C77.1715 272.728 77.1075 272.728 77.0915 272.664L74.7555 263.976C74.7235 263.848 74.6435 263.8 74.5315 263.8H73.7635C73.6515 263.8 73.5555 263.864 73.5235 263.976L71.2835 272.648C71.2675 272.712 71.2035 272.712 71.1875 272.648L68.7875 263.976C68.7555 263.848 68.6755 263.8 68.5635 263.8H67.7795C67.6355 263.8 67.5715 263.896 67.6035 264.04L70.6435 274.824C70.6755 274.952 70.7555 275 70.8675 275ZM84.7914 274.152C83.6234 274.152 82.8394 273.512 82.6154 272.584C82.5514 272.344 82.5194 271.944 82.5194 271.416C82.5194 271.368 82.5514 271.336 82.5994 271.336H87.7194C87.8474 271.336 87.9274 271.256 87.9274 271.128C87.9274 270.376 87.9114 269.96 87.8314 269.528C87.5434 267.848 86.5354 266.776 84.6314 266.776C83.0474 266.776 81.8954 267.688 81.5434 269.064C81.4154 269.56 81.3994 270.104 81.3994 270.92C81.3994 271.816 81.4794 272.536 81.7034 273.128C82.1354 274.36 83.1754 275.128 84.6954 275.128C86.1354 275.128 87.1754 274.424 87.6714 273.384C87.7354 273.272 87.6874 273.176 87.5754 273.112L87.1114 272.856C86.9994 272.792 86.8874 272.84 86.8394 272.952C86.4714 273.672 85.7834 274.136 84.7914 274.152ZM84.6314 267.768C85.7354 267.768 86.4714 268.408 86.6954 269.336C86.7434 269.56 86.7754 269.928 86.7914 270.36C86.7914 270.408 86.7594 270.44 86.7114 270.44H82.5994C82.5514 270.44 82.5194 270.408 82.5194 270.36C82.5354 269.896 82.5674 269.528 82.6474 269.272C82.8554 268.392 83.5434 267.768 84.6314 267.768ZM96.4454 275.128C98.0134 275.128 99.2614 274.28 99.5814 273.048C99.6134 272.936 99.6294 272.84 99.6454 272.776C99.6614 272.632 99.5814 272.552 99.4534 272.536L98.7654 272.424C98.6374 272.408 98.5414 272.456 98.5254 272.6L98.5094 272.616C98.5094 272.632 98.5094 272.664 98.4934 272.696C98.3174 273.512 97.5174 274.136 96.4454 274.136C95.3574 274.136 94.6214 273.496 94.4134 272.568C94.3334 272.248 94.2694 271.72 94.2694 270.936C94.2694 270.216 94.3334 269.656 94.4134 269.32C94.6214 268.408 95.3574 267.768 96.4454 267.768C97.5494 267.768 98.3334 268.44 98.5094 269.224C98.5254 269.288 98.5414 269.352 98.5414 269.416C98.5734 269.56 98.6534 269.608 98.7814 269.592L99.4854 269.512C99.6134 269.496 99.6934 269.416 99.6774 269.272C99.6614 269.16 99.6294 269 99.5814 268.84C99.2614 267.704 98.0614 266.776 96.4454 266.776C94.8934 266.776 93.7254 267.656 93.3414 268.968C93.2134 269.464 93.1334 270.04 93.1334 270.92C93.1334 271.736 93.1814 272.36 93.3414 272.904C93.7414 274.248 94.8774 275.128 96.4454 275.128ZM104.759 275.128C106.279 275.128 107.447 274.28 107.863 272.904C108.023 272.376 108.087 271.704 108.087 270.936C108.087 270.184 108.023 269.512 107.863 268.968C107.463 267.624 106.295 266.776 104.759 266.776C103.175 266.776 102.023 267.624 101.607 268.984C101.463 269.496 101.399 270.152 101.399 270.936C101.399 271.704 101.463 272.376 101.623 272.904C102.039 274.28 103.191 275.128 104.759 275.128ZM104.759 274.136C103.687 274.136 102.919 273.528 102.679 272.568C102.583 272.216 102.551 271.64 102.551 270.952C102.551 270.28 102.583 269.688 102.679 269.336C102.935 268.392 103.687 267.768 104.727 267.768C105.799 267.768 106.567 268.392 106.807 269.336C106.903 269.688 106.935 270.248 106.935 270.952C106.935 271.592 106.903 272.184 106.807 272.568C106.551 273.528 105.783 274.136 104.759 274.136ZM112.173 275H113.037C113.149 275 113.245 274.936 113.277 274.824L115.853 267.16C115.901 267.016 115.837 266.92 115.693 266.92L114.877 266.904C114.765 266.904 114.685 266.952 114.653 267.08L112.653 273.304C112.637 273.384 112.573 273.384 112.557 273.304L110.557 267.08C110.525 266.952 110.445 266.904 110.333 266.904H109.517C109.373 266.904 109.293 267 109.341 267.144L111.933 274.824C111.965 274.936 112.061 275 112.173 275ZM120.557 274.152C119.389 274.152 118.605 273.512 118.381 272.584C118.317 272.344 118.285 271.944 118.285 271.416C118.285 271.368 118.317 271.336 118.365 271.336H123.485C123.613 271.336 123.693 271.256 123.693 271.128C123.693 270.376 123.677 269.96 123.597 269.528C123.309 267.848 122.301 266.776 120.397 266.776C118.813 266.776 117.661 267.688 117.309 269.064C117.181 269.56 117.165 270.104 117.165 270.92C117.165 271.816 117.245 272.536 117.469 273.128C117.901 274.36 118.941 275.128 120.461 275.128C121.901 275.128 122.941 274.424 123.437 273.384C123.501 273.272 123.453 273.176 123.341 273.112L122.877 272.856C122.765 272.792 122.653 272.84 122.605 272.952C122.237 273.672 121.549 274.136 120.557 274.152ZM120.397 267.768C121.501 267.768 122.237 268.408 122.461 269.336C122.509 269.56 122.541 269.928 122.557 270.36C122.557 270.408 122.525 270.44 122.477 270.44H118.365C118.317 270.44 118.285 270.408 118.285 270.36C118.301 269.896 118.333 269.528 118.413 269.272C118.621 268.392 119.309 267.768 120.397 267.768ZM129.216 266.824C128.288 266.824 127.6 267.304 127.168 268.04C127.136 268.104 127.088 268.088 127.088 268.008V267.112C127.088 266.984 127.008 266.904 126.88 266.904H126.16C126.032 266.904 125.952 266.984 125.952 267.112V274.792C125.952 274.92 126.032 275 126.16 275H126.88C127.008 275 127.088 274.92 127.088 274.792V270.12C127.088 268.92 127.904 268.056 129.008 268.024C129.344 268.008 129.6 268.04 129.792 268.104C129.936 268.152 130.016 268.104 130.048 267.976L130.208 267.272C130.24 267.16 130.208 267.064 130.096 267.016C129.888 266.904 129.616 266.824 129.216 266.824ZM138.615 267.64V267.112C138.615 266.984 138.535 266.904 138.407 266.904H136.663C136.615 266.904 136.583 266.872 136.583 266.824V265.032C136.583 264.904 136.503 264.824 136.375 264.824H135.687C135.559 264.824 135.479 264.904 135.479 265.032V266.824C135.479 266.872 135.447 266.904 135.399 266.904H134.487C134.359 266.904 134.279 266.984 134.279 267.112V267.64C134.279 267.768 134.359 267.848 134.487 267.848H135.399C135.447 267.848 135.479 267.88 135.479 267.928V272.952C135.479 274.616 136.423 274.984 137.815 274.984H138.359C138.503 274.968 138.567 274.888 138.567 274.76V274.2C138.567 274.072 138.487 273.992 138.359 273.992H138.007C137.047 273.992 136.583 273.64 136.583 272.6V267.928C136.583 267.88 136.615 267.848 136.663 267.848H138.407C138.535 267.848 138.615 267.768 138.615 267.64ZM144.171 266.792C143.243 266.792 142.491 267.112 142.027 267.752C141.995 267.816 141.947 267.768 141.947 267.704V264.008C141.947 263.88 141.867 263.8 141.739 263.8H141.019C140.891 263.8 140.811 263.88 140.811 264.008V274.792C140.811 274.92 140.891 275 141.019 275H141.739C141.867 275 141.947 274.92 141.947 274.792V269.464C142.059 268.456 142.827 267.784 143.915 267.784C145.051 267.784 145.819 268.6 145.819 269.784V274.792C145.819 274.92 145.899 275 146.027 275H146.747C146.875 275 146.955 274.92 146.955 274.792V269.56C146.955 267.88 145.851 266.792 144.171 266.792ZM152.588 274.152C151.42 274.152 150.636 273.512 150.412 272.584C150.348 272.344 150.316 271.944 150.316 271.416C150.316 271.368 150.348 271.336 150.396 271.336H155.516C155.644 271.336 155.724 271.256 155.724 271.128C155.724 270.376 155.708 269.96 155.628 269.528C155.34 267.848 154.332 266.776 152.428 266.776C150.844 266.776 149.692 267.688 149.34 269.064C149.212 269.56 149.196 270.104 149.196 270.92C149.196 271.816 149.276 272.536 149.5 273.128C149.932 274.36 150.972 275.128 152.492 275.128C153.932 275.128 154.972 274.424 155.468 273.384C155.532 273.272 155.484 273.176 155.372 273.112L154.908 272.856C154.796 272.792 154.684 272.84 154.636 272.952C154.268 273.672 153.58 274.136 152.588 274.152ZM152.428 267.768C153.532 267.768 154.268 268.408 154.492 269.336C154.54 269.56 154.572 269.928 154.588 270.36C154.588 270.408 154.556 270.44 154.508 270.44H150.396C150.348 270.44 150.316 270.408 150.316 270.36C150.332 269.896 150.364 269.528 150.444 269.272C150.652 268.392 151.34 267.768 152.428 267.768ZM164.242 275.128C165.81 275.128 167.058 274.28 167.378 273.048C167.41 272.936 167.426 272.84 167.442 272.776C167.458 272.632 167.378 272.552 167.25 272.536L166.562 272.424C166.434 272.408 166.338 272.456 166.322 272.6L166.306 272.616C166.306 272.632 166.306 272.664 166.29 272.696C166.114 273.512 165.314 274.136 164.242 274.136C163.154 274.136 162.418 273.496 162.21 272.568C162.13 272.248 162.066 271.72 162.066 270.936C162.066 270.216 162.13 269.656 162.21 269.32C162.418 268.408 163.154 267.768 164.242 267.768C165.346 267.768 166.13 268.44 166.306 269.224C166.322 269.288 166.338 269.352 166.338 269.416C166.37 269.56 166.45 269.608 166.578 269.592L167.282 269.512C167.41 269.496 167.49 269.416 167.474 269.272C167.458 269.16 167.426 269 167.378 268.84C167.058 267.704 165.858 266.776 164.242 266.776C162.69 266.776 161.522 267.656 161.138 268.968C161.01 269.464 160.93 270.04 160.93 270.92C160.93 271.736 160.978 272.36 161.138 272.904C161.538 274.248 162.674 275.128 164.242 275.128ZM172.556 275.128C174.076 275.128 175.244 274.28 175.66 272.904C175.82 272.376 175.884 271.704 175.884 270.936C175.884 270.184 175.82 269.512 175.66 268.968C175.26 267.624 174.092 266.776 172.556 266.776C170.972 266.776 169.82 267.624 169.404 268.984C169.26 269.496 169.196 270.152 169.196 270.936C169.196 271.704 169.26 272.376 169.42 272.904C169.836 274.28 170.988 275.128 172.556 275.128ZM172.556 274.136C171.484 274.136 170.716 273.528 170.476 272.568C170.38 272.216 170.348 271.64 170.348 270.952C170.348 270.28 170.38 269.688 170.476 269.336C170.732 268.392 171.484 267.768 172.524 267.768C173.596 267.768 174.364 268.392 174.604 269.336C174.7 269.688 174.732 270.248 174.732 270.952C174.732 271.592 174.7 272.184 174.604 272.568C174.348 273.528 173.58 274.136 172.556 274.136ZM180.842 275.08C182.65 275.08 183.818 274.168 183.818 272.792C183.818 271.208 182.266 270.776 180.906 270.392C179.818 270.072 178.954 269.784 178.954 268.984C178.954 268.216 179.69 267.752 180.762 267.752C181.962 267.752 182.682 268.328 182.682 269.032V269.128C182.682 269.192 182.762 269.24 182.89 269.24H183.546C183.674 269.24 183.754 269.16 183.754 269.032C183.754 267.768 182.57 266.824 180.778 266.824C179.05 266.824 177.85 267.688 177.85 269.064C177.85 270.584 179.322 271.048 180.698 271.448C181.754 271.768 182.682 272.008 182.682 272.872C182.682 273.624 181.946 274.2 180.826 274.2C179.674 274.2 178.906 273.56 178.906 272.888V272.744C178.906 272.664 178.826 272.6 178.698 272.6H178.01C177.882 272.6 177.802 272.68 177.802 272.808V272.952C177.802 274.12 179.002 275.08 180.842 275.08ZM189.521 267.64V267.112C189.521 266.984 189.441 266.904 189.313 266.904H187.569C187.521 266.904 187.489 266.872 187.489 266.824V265.032C187.489 264.904 187.409 264.824 187.281 264.824H186.593C186.465 264.824 186.385 264.904 186.385 265.032V266.824C186.385 266.872 186.353 266.904 186.305 266.904H185.393C185.265 266.904 185.185 266.984 185.185 267.112V267.64C185.185 267.768 185.265 267.848 185.393 267.848H186.305C186.353 267.848 186.385 267.88 186.385 267.928V272.952C186.385 274.616 187.329 274.984 188.721 274.984H189.265C189.409 274.968 189.473 274.888 189.473 274.76V274.2C189.473 274.072 189.393 273.992 189.265 273.992H188.913C187.953 273.992 187.489 273.64 187.489 272.6V267.928C187.489 267.88 187.521 267.848 187.569 267.848H189.313C189.441 267.848 189.521 267.768 189.521 267.64ZM197.721 266.776C196.073 266.776 194.889 267.576 194.681 268.744C194.665 268.856 194.745 268.904 194.873 268.92L195.657 269.016C195.785 269.032 195.865 268.984 195.897 268.856C196.073 268.184 196.729 267.768 197.737 267.768C199.065 267.768 199.609 268.488 199.609 269.528V270.12C199.609 270.168 199.577 270.2 199.529 270.2H197.673C195.593 270.2 194.377 271.192 194.377 272.792C194.377 274.472 195.657 275.128 197.017 275.128C198.025 275.128 198.921 274.808 199.513 274.184C199.561 274.12 199.609 274.152 199.609 274.216V274.792C199.609 274.92 199.689 275 199.817 275H200.537C200.665 275 200.745 274.92 200.745 274.792V269.464C200.745 267.88 199.673 266.776 197.721 266.776ZM197.273 274.152C196.297 274.152 195.513 273.704 195.513 272.728C195.513 271.688 196.457 271.096 197.849 271.096H199.529C199.577 271.096 199.609 271.128 199.609 271.176V272.408C199.609 273.528 198.457 274.152 197.273 274.152ZM206.453 266.792C205.525 266.792 204.773 267.112 204.309 267.752C204.277 267.816 204.229 267.768 204.229 267.704V267.112C204.229 266.984 204.149 266.904 204.021 266.904H203.301C203.173 266.904 203.093 266.984 203.093 267.112V274.792C203.093 274.92 203.173 275 203.301 275H204.021C204.149 275 204.229 274.92 204.229 274.792V269.464C204.341 268.456 205.109 267.784 206.197 267.784C207.333 267.784 208.101 268.6 208.101 269.784V274.792C208.101 274.92 208.181 275 208.309 275H209.029C209.157 275 209.237 274.92 209.237 274.792V269.56C209.237 267.88 208.133 266.792 206.453 266.792ZM216.694 264.008V267.704C216.694 267.768 216.646 267.8 216.598 267.736C216.134 267.128 215.414 266.776 214.566 266.776C213.014 266.776 211.99 267.64 211.606 268.968C211.446 269.512 211.414 270.168 211.414 270.952C211.414 271.768 211.462 272.424 211.638 272.984C212.022 274.28 213.046 275.128 214.566 275.128C215.414 275.128 216.134 274.776 216.598 274.152C216.646 274.104 216.694 274.12 216.694 274.184V274.792C216.694 274.92 216.774 275 216.902 275H217.622C217.75 275 217.83 274.92 217.83 274.792V264.008C217.83 263.88 217.75 263.8 217.622 263.8H216.902C216.774 263.8 216.694 263.88 216.694 264.008ZM216.39 272.904C216.134 273.624 215.558 274.136 214.678 274.136C213.782 274.136 213.094 273.656 212.838 272.888C212.646 272.456 212.549 271.992 212.549 270.952C212.549 269.848 212.678 269.368 212.918 268.936C213.19 268.248 213.83 267.768 214.694 267.768C215.542 267.768 216.118 268.264 216.374 268.968C216.566 269.4 216.662 269.88 216.662 270.952C216.662 272.008 216.582 272.488 216.39 272.904ZM226.649 275.128C228.217 275.128 229.465 274.28 229.785 273.048C229.817 272.936 229.833 272.84 229.849 272.776C229.865 272.632 229.785 272.552 229.657 272.536L228.969 272.424C228.841 272.408 228.745 272.456 228.729 272.6L228.713 272.616C228.713 272.632 228.713 272.664 228.697 272.696C228.521 273.512 227.721 274.136 226.649 274.136C225.561 274.136 224.825 273.496 224.617 272.568C224.537 272.248 224.473 271.72 224.473 270.936C224.473 270.216 224.537 269.656 224.617 269.32C224.825 268.408 225.561 267.768 226.649 267.768C227.753 267.768 228.537 268.44 228.713 269.224C228.729 269.288 228.745 269.352 228.745 269.416C228.777 269.56 228.857 269.608 228.985 269.592L229.689 269.512C229.817 269.496 229.897 269.416 229.881 269.272C229.865 269.16 229.833 269 229.785 268.84C229.465 267.704 228.265 266.776 226.649 266.776C225.097 266.776 223.929 267.656 223.545 268.968C223.417 269.464 223.337 270.04 223.337 270.92C223.337 271.736 223.385 272.36 223.545 272.904C223.945 274.248 225.081 275.128 226.649 275.128ZM234.962 275.128C236.482 275.128 237.65 274.28 238.066 272.904C238.226 272.376 238.29 271.704 238.29 270.936C238.29 270.184 238.226 269.512 238.066 268.968C237.666 267.624 236.498 266.776 234.962 266.776C233.378 266.776 232.226 267.624 231.81 268.984C231.666 269.496 231.602 270.152 231.602 270.936C231.602 271.704 231.666 272.376 231.826 272.904C232.242 274.28 233.394 275.128 234.962 275.128ZM234.962 274.136C233.89 274.136 233.122 273.528 232.882 272.568C232.786 272.216 232.754 271.64 232.754 270.952C232.754 270.28 232.786 269.688 232.882 269.336C233.138 268.392 233.89 267.768 234.93 267.768C236.002 267.768 236.77 268.392 237.01 269.336C237.106 269.688 237.138 270.248 237.138 270.952C237.138 271.592 237.106 272.184 237.01 272.568C236.754 273.528 235.986 274.136 234.962 274.136ZM243.699 264.792H244.019C244.147 264.792 244.227 264.712 244.227 264.584V264.008C244.227 263.88 244.147 263.8 244.019 263.8H243.603C241.619 263.8 241.059 264.552 241.059 266.456V266.824C241.059 266.872 241.027 266.904 240.979 266.904H239.971C239.843 266.904 239.763 266.984 239.763 267.112V267.736C239.763 267.864 239.843 267.944 239.971 267.944H240.979C241.027 267.944 241.059 267.976 241.059 268.024V274.792C241.059 274.92 241.139 275 241.267 275H241.971C242.099 275 242.179 274.92 242.179 274.792V268.024C242.179 267.976 242.211 267.944 242.259 267.944H243.987C244.115 267.944 244.195 267.864 244.195 267.736V267.112C244.195 266.984 244.115 266.904 243.987 266.904H242.259C242.211 266.904 242.179 266.872 242.179 266.824V266.52C242.179 265.304 242.483 264.792 243.699 264.792ZM249.402 264.792H249.722C249.85 264.792 249.93 264.712 249.93 264.584V264.008C249.93 263.88 249.85 263.8 249.722 263.8H249.306C247.322 263.8 246.762 264.552 246.762 266.456V266.824C246.762 266.872 246.73 266.904 246.682 266.904H245.674C245.546 266.904 245.466 266.984 245.466 267.112V267.736C245.466 267.864 245.546 267.944 245.674 267.944H246.682C246.73 267.944 246.762 267.976 246.762 268.024V274.792C246.762 274.92 246.842 275 246.97 275H247.674C247.802 275 247.882 274.92 247.882 274.792V268.024C247.882 267.976 247.914 267.944 247.962 267.944H249.69C249.818 267.944 249.898 267.864 249.898 267.736V267.112C249.898 266.984 249.818 266.904 249.69 266.904H247.962C247.914 266.904 247.882 266.872 247.882 266.824V266.52C247.882 265.304 248.186 264.792 249.402 264.792ZM254.307 274.152C253.139 274.152 252.355 273.512 252.131 272.584C252.067 272.344 252.035 271.944 252.035 271.416C252.035 271.368 252.067 271.336 252.115 271.336H257.235C257.363 271.336 257.443 271.256 257.443 271.128C257.443 270.376 257.427 269.96 257.347 269.528C257.059 267.848 256.051 266.776 254.147 266.776C252.563 266.776 251.411 267.688 251.059 269.064C250.931 269.56 250.915 270.104 250.915 270.92C250.915 271.816 250.995 272.536 251.219 273.128C251.651 274.36 252.691 275.128 254.211 275.128C255.651 275.128 256.691 274.424 257.187 273.384C257.251 273.272 257.203 273.176 257.091 273.112L256.627 272.856C256.515 272.792 256.403 272.84 256.355 272.952C255.987 273.672 255.299 274.136 254.307 274.152ZM254.147 267.768C255.251 267.768 255.987 268.408 256.211 269.336C256.259 269.56 256.291 269.928 256.307 270.36C256.307 270.408 256.275 270.44 256.227 270.44H252.115C252.067 270.44 252.035 270.408 252.035 270.36C252.051 269.896 252.083 269.528 252.163 269.272C252.371 268.392 253.059 267.768 254.147 267.768ZM262.854 274.152C261.686 274.152 260.902 273.512 260.678 272.584C260.614 272.344 260.582 271.944 260.582 271.416C260.582 271.368 260.614 271.336 260.662 271.336H265.782C265.91 271.336 265.99 271.256 265.99 271.128C265.99 270.376 265.974 269.96 265.894 269.528C265.606 267.848 264.598 266.776 262.694 266.776C261.11 266.776 259.958 267.688 259.606 269.064C259.478 269.56 259.462 270.104 259.462 270.92C259.462 271.816 259.542 272.536 259.766 273.128C260.198 274.36 261.238 275.128 262.758 275.128C264.198 275.128 265.238 274.424 265.734 273.384C265.798 273.272 265.75 273.176 265.638 273.112L265.174 272.856C265.062 272.792 264.95 272.84 264.902 272.952C264.534 273.672 263.846 274.136 262.854 274.152ZM262.694 267.768C263.798 267.768 264.534 268.408 264.758 269.336C264.806 269.56 264.838 269.928 264.854 270.36C264.854 270.408 264.822 270.44 264.774 270.44H260.662C260.614 270.44 260.582 270.408 260.582 270.36C260.598 269.896 260.63 269.528 260.71 269.272C260.918 268.392 261.606 267.768 262.694 267.768ZM272.14 265.448C272.652 265.448 273.004 265.112 273.004 264.616C273.004 264.136 272.652 263.8 272.14 263.8C271.628 263.8 271.276 264.136 271.276 264.616C271.276 265.112 271.628 265.448 272.14 265.448ZM271.788 275H272.508C272.636 275 272.716 274.92 272.716 274.792V267.112C272.716 266.984 272.636 266.904 272.508 266.904H271.788C271.66 266.904 271.58 266.984 271.58 267.112V274.792C271.58 274.92 271.66 275 271.788 275ZM278.03 275.08C279.838 275.08 281.006 274.168 281.006 272.792C281.006 271.208 279.454 270.776 278.094 270.392C277.006 270.072 276.142 269.784 276.142 268.984C276.142 268.216 276.878 267.752 277.95 267.752C279.15 267.752 279.87 268.328 279.87 269.032V269.128C279.87 269.192 279.95 269.24 280.078 269.24H280.734C280.862 269.24 280.942 269.16 280.942 269.032C280.942 267.768 279.758 266.824 277.966 266.824C276.238 266.824 275.038 267.688 275.038 269.064C275.038 270.584 276.51 271.048 277.886 271.448C278.942 271.768 279.87 272.008 279.87 272.872C279.87 273.624 279.134 274.2 278.014 274.2C276.862 274.2 276.094 273.56 276.094 272.888V272.744C276.094 272.664 276.014 272.6 275.886 272.6H275.198C275.07 272.6 274.99 272.68 274.99 272.808V272.952C274.99 274.12 276.19 275.08 278.03 275.08ZM74.3107 290.008V293.704C74.3107 293.768 74.2627 293.8 74.2147 293.736C73.7507 293.128 73.0307 292.776 72.1827 292.776C70.6307 292.776 69.6067 293.64 69.2227 294.968C69.0627 295.512 69.0307 296.168 69.0307 296.952C69.0307 297.768 69.0787 298.424 69.2547 298.984C69.6387 300.28 70.6627 301.128 72.1827 301.128C73.0307 301.128 73.7507 300.776 74.2147 300.152C74.2627 300.104 74.3107 300.12 74.3107 300.184V300.792C74.3107 300.92 74.3907 301 74.5187 301H75.2387C75.3667 301 75.4467 300.92 75.4467 300.792V290.008C75.4467 289.88 75.3667 289.8 75.2387 289.8H74.5187C74.3907 289.8 74.3107 289.88 74.3107 290.008ZM74.0067 298.904C73.7507 299.624 73.1747 300.136 72.2947 300.136C71.3987 300.136 70.7107 299.656 70.4547 298.888C70.2627 298.456 70.1667 297.992 70.1667 296.952C70.1667 295.848 70.2947 295.368 70.5347 294.936C70.8067 294.248 71.4467 293.768 72.3107 293.768C73.1587 293.768 73.7347 294.264 73.9907 294.968C74.1827 295.4 74.2787 295.88 74.2787 296.952C74.2787 298.008 74.1987 298.488 74.0067 298.904ZM81.1586 300.152C79.9906 300.152 79.2066 299.512 78.9826 298.584C78.9186 298.344 78.8866 297.944 78.8866 297.416C78.8866 297.368 78.9186 297.336 78.9666 297.336H84.0866C84.2146 297.336 84.2946 297.256 84.2946 297.128C84.2946 296.376 84.2786 295.96 84.1986 295.528C83.9106 293.848 82.9026 292.776 80.9986 292.776C79.4146 292.776 78.2626 293.688 77.9106 295.064C77.7826 295.56 77.7666 296.104 77.7666 296.92C77.7666 297.816 77.8466 298.536 78.0706 299.128C78.5026 300.36 79.5426 301.128 81.0626 301.128C82.5026 301.128 83.5426 300.424 84.0386 299.384C84.1026 299.272 84.0546 299.176 83.9426 299.112L83.4786 298.856C83.3666 298.792 83.2546 298.84 83.2066 298.952C82.8386 299.672 82.1506 300.136 81.1586 300.152ZM80.9986 293.768C82.1026 293.768 82.8386 294.408 83.0626 295.336C83.1106 295.56 83.1426 295.928 83.1586 296.36C83.1586 296.408 83.1266 296.44 83.0786 296.44H78.9666C78.9186 296.44 78.8866 296.408 78.8866 296.36C78.9026 295.896 78.9346 295.528 79.0146 295.272C79.2226 294.392 79.9106 293.768 80.9986 293.768ZM86.7614 301H87.4814C87.6094 301 87.6894 300.92 87.6894 300.792V290.008C87.6894 289.88 87.6094 289.8 87.4814 289.8H86.7614C86.6334 289.8 86.5534 289.88 86.5534 290.008V300.792C86.5534 300.92 86.6334 301 86.7614 301ZM90.9602 291.448C91.4722 291.448 91.8242 291.112 91.8242 290.616C91.8242 290.136 91.4722 289.8 90.9602 289.8C90.4482 289.8 90.0962 290.136 90.0962 290.616C90.0962 291.112 90.4482 291.448 90.9602 291.448ZM90.6082 301H91.3282C91.4562 301 91.5362 300.92 91.5362 300.792V293.112C91.5362 292.984 91.4562 292.904 91.3282 292.904H90.6082C90.4802 292.904 90.4002 292.984 90.4002 293.112V300.792C90.4002 300.92 90.4802 301 90.6082 301ZM96.2901 301H97.1541C97.2661 301 97.3621 300.936 97.3941 300.824L99.9701 293.16C100.018 293.016 99.9541 292.92 99.8101 292.92L98.9941 292.904C98.8821 292.904 98.8021 292.952 98.7701 293.08L96.7701 299.304C96.7541 299.384 96.6901 299.384 96.6741 299.304L94.6741 293.08C94.6421 292.952 94.5621 292.904 94.4501 292.904H93.6341C93.4901 292.904 93.4101 293 93.4581 293.144L96.0501 300.824C96.0821 300.936 96.1781 301 96.2901 301ZM104.674 300.152C103.506 300.152 102.722 299.512 102.498 298.584C102.434 298.344 102.402 297.944 102.402 297.416C102.402 297.368 102.434 297.336 102.482 297.336H107.602C107.73 297.336 107.81 297.256 107.81 297.128C107.81 296.376 107.794 295.96 107.714 295.528C107.426 293.848 106.418 292.776 104.514 292.776C102.93 292.776 101.778 293.688 101.426 295.064C101.298 295.56 101.282 296.104 101.282 296.92C101.282 297.816 101.362 298.536 101.586 299.128C102.018 300.36 103.058 301.128 104.578 301.128C106.018 301.128 107.058 300.424 107.554 299.384C107.618 299.272 107.57 299.176 107.458 299.112L106.994 298.856C106.882 298.792 106.77 298.84 106.722 298.952C106.354 299.672 105.666 300.136 104.674 300.152ZM104.514 293.768C105.618 293.768 106.354 294.408 106.578 295.336C106.626 295.56 106.658 295.928 106.674 296.36C106.674 296.408 106.642 296.44 106.594 296.44H102.482C102.434 296.44 102.402 296.408 102.402 296.36C102.418 295.896 102.45 295.528 102.53 295.272C102.738 294.392 103.426 293.768 104.514 293.768ZM113.333 292.824C112.405 292.824 111.717 293.304 111.285 294.04C111.253 294.104 111.205 294.088 111.205 294.008V293.112C111.205 292.984 111.125 292.904 110.997 292.904H110.277C110.149 292.904 110.069 292.984 110.069 293.112V300.792C110.069 300.92 110.149 301 110.277 301H110.997C111.125 301 111.205 300.92 111.205 300.792V296.12C111.205 294.92 112.021 294.056 113.125 294.024C113.461 294.008 113.717 294.04 113.909 294.104C114.053 294.152 114.133 294.104 114.165 293.976L114.325 293.272C114.357 293.16 114.325 293.064 114.213 293.016C114.005 292.904 113.733 292.824 113.333 292.824ZM118.971 300.152C117.803 300.152 117.019 299.512 116.795 298.584C116.731 298.344 116.699 297.944 116.699 297.416C116.699 297.368 116.731 297.336 116.779 297.336H121.899C122.027 297.336 122.107 297.256 122.107 297.128C122.107 296.376 122.091 295.96 122.011 295.528C121.723 293.848 120.715 292.776 118.811 292.776C117.227 292.776 116.075 293.688 115.723 295.064C115.595 295.56 115.579 296.104 115.579 296.92C115.579 297.816 115.659 298.536 115.883 299.128C116.315 300.36 117.355 301.128 118.875 301.128C120.315 301.128 121.355 300.424 121.851 299.384C121.915 299.272 121.867 299.176 121.755 299.112L121.291 298.856C121.179 298.792 121.067 298.84 121.019 298.952C120.651 299.672 119.963 300.136 118.971 300.152ZM118.811 293.768C119.915 293.768 120.651 294.408 120.875 295.336C120.923 295.56 120.955 295.928 120.971 296.36C120.971 296.408 120.939 296.44 120.891 296.44H116.779C116.731 296.44 116.699 296.408 116.699 296.36C116.715 295.896 116.747 295.528 116.827 295.272C117.035 294.392 117.723 293.768 118.811 293.768ZM129.342 290.008V293.704C129.342 293.768 129.294 293.8 129.246 293.736C128.782 293.128 128.062 292.776 127.214 292.776C125.662 292.776 124.638 293.64 124.254 294.968C124.094 295.512 124.062 296.168 124.062 296.952C124.062 297.768 124.11 298.424 124.286 298.984C124.67 300.28 125.694 301.128 127.214 301.128C128.062 301.128 128.782 300.776 129.246 300.152C129.294 300.104 129.342 300.12 129.342 300.184V300.792C129.342 300.92 129.422 301 129.55 301H130.27C130.398 301 130.478 300.92 130.478 300.792V290.008C130.478 289.88 130.398 289.8 130.27 289.8H129.55C129.422 289.8 129.342 289.88 129.342 290.008ZM129.038 298.904C128.782 299.624 128.206 300.136 127.326 300.136C126.43 300.136 125.742 299.656 125.486 298.888C125.294 298.456 125.198 297.992 125.198 296.952C125.198 295.848 125.326 295.368 125.566 294.936C125.838 294.248 126.478 293.768 127.342 293.768C128.19 293.768 128.766 294.264 129.022 294.968C129.214 295.4 129.31 295.88 129.31 296.952C129.31 298.008 129.23 298.488 129.038 298.904ZM139.441 290.792H139.761C139.889 290.792 139.969 290.712 139.969 290.584V290.008C139.969 289.88 139.889 289.8 139.761 289.8H139.345C137.361 289.8 136.801 290.552 136.801 292.456V292.824C136.801 292.872 136.769 292.904 136.721 292.904H135.713C135.585 292.904 135.505 292.984 135.505 293.112V293.736C135.505 293.864 135.585 293.944 135.713 293.944H136.721C136.769 293.944 136.801 293.976 136.801 294.024V300.792C136.801 300.92 136.881 301 137.009 301H137.713C137.841 301 137.921 300.92 137.921 300.792V294.024C137.921 293.976 137.953 293.944 138.001 293.944H139.729C139.857 293.944 139.937 293.864 139.937 293.736V293.112C139.937 292.984 139.857 292.904 139.729 292.904H138.001C137.953 292.904 137.921 292.872 137.921 292.824V292.52C137.921 291.304 138.225 290.792 139.441 290.792ZM144.463 292.776C142.815 292.776 141.631 293.576 141.423 294.744C141.407 294.856 141.487 294.904 141.615 294.92L142.399 295.016C142.527 295.032 142.607 294.984 142.639 294.856C142.815 294.184 143.471 293.768 144.479 293.768C145.807 293.768 146.351 294.488 146.351 295.528V296.12C146.351 296.168 146.319 296.2 146.271 296.2H144.415C142.335 296.2 141.119 297.192 141.119 298.792C141.119 300.472 142.399 301.128 143.759 301.128C144.767 301.128 145.663 300.808 146.255 300.184C146.303 300.12 146.351 300.152 146.351 300.216V300.792C146.351 300.92 146.431 301 146.559 301H147.279C147.407 301 147.487 300.92 147.487 300.792V295.464C147.487 293.88 146.415 292.776 144.463 292.776ZM144.015 300.152C143.039 300.152 142.255 299.704 142.255 298.728C142.255 297.688 143.199 297.096 144.591 297.096H146.271C146.319 297.096 146.351 297.128 146.351 297.176V298.408C146.351 299.528 145.199 300.152 144.015 300.152ZM152.491 301.08C154.299 301.08 155.467 300.168 155.467 298.792C155.467 297.208 153.915 296.776 152.555 296.392C151.467 296.072 150.603 295.784 150.603 294.984C150.603 294.216 151.339 293.752 152.411 293.752C153.611 293.752 154.331 294.328 154.331 295.032V295.128C154.331 295.192 154.411 295.24 154.539 295.24H155.195C155.323 295.24 155.403 295.16 155.403 295.032C155.403 293.768 154.219 292.824 152.427 292.824C150.699 292.824 149.499 293.688 149.499 295.064C149.499 296.584 150.971 297.048 152.347 297.448C153.403 297.768 154.331 298.008 154.331 298.872C154.331 299.624 153.595 300.2 152.475 300.2C151.323 300.2 150.555 299.56 150.555 298.888V298.744C150.555 298.664 150.475 298.6 150.347 298.6H149.659C149.531 298.6 149.451 298.68 149.451 298.808V298.952C149.451 300.12 150.651 301.08 152.491 301.08ZM161.17 293.64V293.112C161.17 292.984 161.09 292.904 160.962 292.904H159.218C159.17 292.904 159.138 292.872 159.138 292.824V291.032C159.138 290.904 159.058 290.824 158.93 290.824H158.242C158.114 290.824 158.034 290.904 158.034 291.032V292.824C158.034 292.872 158.002 292.904 157.954 292.904H157.042C156.914 292.904 156.834 292.984 156.834 293.112V293.64C156.834 293.768 156.914 293.848 157.042 293.848H157.954C158.002 293.848 158.034 293.88 158.034 293.928V298.952C158.034 300.616 158.978 300.984 160.37 300.984H160.914C161.058 300.968 161.122 300.888 161.122 300.76V300.2C161.122 300.072 161.042 299.992 160.914 299.992H160.562C159.602 299.992 159.138 299.64 159.138 298.6V293.928C159.138 293.88 159.17 293.848 159.218 293.848H160.962C161.09 293.848 161.17 293.768 161.17 293.64ZM164.246 300.952C164.79 300.952 165.238 300.536 165.238 300.008C165.238 299.48 164.758 299.064 164.246 299.064C163.718 299.064 163.254 299.48 163.254 300.008C163.254 300.536 163.67 300.952 164.246 300.952ZM175.44 289.784H171.28C171.152 289.784 171.072 289.864 171.072 289.992V300.792C171.072 300.92 171.152 301 171.28 301H172C172.128 301 172.208 300.92 172.208 300.792V296.088C172.208 296.04 172.24 296.008 172.288 296.008H175.392C177.296 296.008 178.56 294.776 178.56 292.92C178.56 291.032 177.312 289.784 175.44 289.784ZM175.312 295.064H172.288C172.24 295.064 172.208 295.032 172.208 294.984V290.856C172.208 290.808 172.24 290.776 172.288 290.776H175.312C176.576 290.776 177.44 291.64 177.44 292.936C177.44 294.216 176.576 295.064 175.312 295.064ZM183.299 300.152C182.131 300.152 181.347 299.512 181.123 298.584C181.059 298.344 181.027 297.944 181.027 297.416C181.027 297.368 181.059 297.336 181.107 297.336H186.227C186.355 297.336 186.435 297.256 186.435 297.128C186.435 296.376 186.419 295.96 186.339 295.528C186.051 293.848 185.043 292.776 183.139 292.776C181.555 292.776 180.403 293.688 180.051 295.064C179.923 295.56 179.907 296.104 179.907 296.92C179.907 297.816 179.987 298.536 180.211 299.128C180.643 300.36 181.683 301.128 183.203 301.128C184.643 301.128 185.683 300.424 186.179 299.384C186.243 299.272 186.195 299.176 186.083 299.112L185.619 298.856C185.507 298.792 185.395 298.84 185.347 298.952C184.979 299.672 184.291 300.136 183.299 300.152ZM183.139 293.768C184.243 293.768 184.979 294.408 185.203 295.336C185.251 295.56 185.283 295.928 185.299 296.36C185.299 296.408 185.267 296.44 185.219 296.44H181.107C181.059 296.44 181.027 296.408 181.027 296.36C181.043 295.896 181.075 295.528 181.155 295.272C181.363 294.392 182.051 293.768 183.139 293.768ZM191.494 292.776C189.846 292.776 188.662 293.576 188.454 294.744C188.438 294.856 188.518 294.904 188.646 294.92L189.43 295.016C189.558 295.032 189.638 294.984 189.67 294.856C189.846 294.184 190.502 293.768 191.51 293.768C192.838 293.768 193.382 294.488 193.382 295.528V296.12C193.382 296.168 193.35 296.2 193.302 296.2H191.446C189.366 296.2 188.15 297.192 188.15 298.792C188.15 300.472 189.43 301.128 190.79 301.128C191.798 301.128 192.694 300.808 193.286 300.184C193.334 300.12 193.382 300.152 193.382 300.216V300.792C193.382 300.92 193.462 301 193.59 301H194.31C194.438 301 194.518 300.92 194.518 300.792V295.464C194.518 293.88 193.446 292.776 191.494 292.776ZM191.046 300.152C190.07 300.152 189.286 299.704 189.286 298.728C189.286 297.688 190.23 297.096 191.622 297.096H193.302C193.35 297.096 193.382 297.128 193.382 297.176V298.408C193.382 299.528 192.23 300.152 191.046 300.152ZM197.074 301H197.794C197.922 301 198.002 300.92 198.002 300.792V298.136C198.002 298.104 198.018 298.056 198.034 298.024L199.778 296.2C199.81 296.168 199.874 296.168 199.89 296.216L201.922 300.84C201.97 300.936 202.05 301 202.162 301H202.914C203.074 301 203.138 300.904 203.074 300.76L200.674 295.464C200.658 295.432 200.658 295.384 200.69 295.352L202.674 293.16C202.786 293.032 202.722 292.904 202.546 292.904H201.698C201.602 292.904 201.506 292.936 201.442 293.016L198.098 296.52C198.05 296.584 198.002 296.536 198.002 296.472V290.008C198.002 289.88 197.922 289.8 197.794 289.8H197.074C196.946 289.8 196.866 289.88 196.866 290.008V300.792C196.866 300.92 196.946 301 197.074 301ZM211.285 290.792H211.605C211.733 290.792 211.813 290.712 211.813 290.584V290.008C211.813 289.88 211.733 289.8 211.605 289.8H211.189C209.205 289.8 208.645 290.552 208.645 292.456V292.824C208.645 292.872 208.613 292.904 208.565 292.904H207.557C207.429 292.904 207.349 292.984 207.349 293.112V293.736C207.349 293.864 207.429 293.944 207.557 293.944H208.565C208.613 293.944 208.645 293.976 208.645 294.024V300.792C208.645 300.92 208.725 301 208.853 301H209.557C209.685 301 209.765 300.92 209.765 300.792V294.024C209.765 293.976 209.797 293.944 209.845 293.944H211.573C211.701 293.944 211.781 293.864 211.781 293.736V293.112C211.781 292.984 211.701 292.904 211.573 292.904H209.845C209.797 292.904 209.765 292.872 209.765 292.824V292.52C209.765 291.304 210.069 290.792 211.285 290.792ZM217.052 292.824C216.124 292.824 215.436 293.304 215.004 294.04C214.972 294.104 214.924 294.088 214.924 294.008V293.112C214.924 292.984 214.844 292.904 214.716 292.904H213.996C213.868 292.904 213.788 292.984 213.788 293.112V300.792C213.788 300.92 213.868 301 213.996 301H214.716C214.844 301 214.924 300.92 214.924 300.792V296.12C214.924 294.92 215.74 294.056 216.844 294.024C217.18 294.008 217.436 294.04 217.628 294.104C217.772 294.152 217.852 294.104 217.884 293.976L218.044 293.272C218.076 293.16 218.044 293.064 217.932 293.016C217.724 292.904 217.452 292.824 217.052 292.824ZM222.69 300.152C221.522 300.152 220.738 299.512 220.514 298.584C220.45 298.344 220.418 297.944 220.418 297.416C220.418 297.368 220.45 297.336 220.498 297.336H225.618C225.746 297.336 225.826 297.256 225.826 297.128C225.826 296.376 225.81 295.96 225.73 295.528C225.442 293.848 224.434 292.776 222.53 292.776C220.946 292.776 219.794 293.688 219.442 295.064C219.314 295.56 219.298 296.104 219.298 296.92C219.298 297.816 219.378 298.536 219.602 299.128C220.034 300.36 221.074 301.128 222.594 301.128C224.034 301.128 225.074 300.424 225.57 299.384C225.634 299.272 225.586 299.176 225.474 299.112L225.01 298.856C224.898 298.792 224.786 298.84 224.738 298.952C224.37 299.672 223.682 300.136 222.69 300.152ZM222.53 293.768C223.634 293.768 224.37 294.408 224.594 295.336C224.642 295.56 224.674 295.928 224.69 296.36C224.69 296.408 224.658 296.44 224.61 296.44H220.498C220.45 296.44 220.418 296.408 220.418 296.36C220.434 295.896 220.466 295.528 220.546 295.272C220.754 294.392 221.442 293.768 222.53 293.768ZM230.741 301.08C232.549 301.08 233.717 300.168 233.717 298.792C233.717 297.208 232.165 296.776 230.805 296.392C229.717 296.072 228.853 295.784 228.853 294.984C228.853 294.216 229.589 293.752 230.661 293.752C231.861 293.752 232.581 294.328 232.581 295.032V295.128C232.581 295.192 232.661 295.24 232.789 295.24H233.445C233.573 295.24 233.653 295.16 233.653 295.032C233.653 293.768 232.469 292.824 230.677 292.824C228.949 292.824 227.749 293.688 227.749 295.064C227.749 296.584 229.221 297.048 230.597 297.448C231.653 297.768 232.581 298.008 232.581 298.872C232.581 299.624 231.845 300.2 230.725 300.2C229.573 300.2 228.805 299.56 228.805 298.888V298.744C228.805 298.664 228.725 298.6 228.597 298.6H227.909C227.781 298.6 227.701 298.68 227.701 298.808V298.952C227.701 300.12 228.901 301.08 230.741 301.08ZM239.163 292.792C238.235 292.792 237.483 293.112 237.019 293.752C236.987 293.816 236.939 293.768 236.939 293.704V290.008C236.939 289.88 236.859 289.8 236.731 289.8H236.011C235.883 289.8 235.803 289.88 235.803 290.008V300.792C235.803 300.92 235.883 301 236.011 301H236.731C236.859 301 236.939 300.92 236.939 300.792V295.464C237.051 294.456 237.819 293.784 238.907 293.784C240.043 293.784 240.811 294.6 240.811 295.784V300.792C240.811 300.92 240.891 301 241.019 301H241.739C241.867 301 241.947 300.92 241.947 300.792V295.56C241.947 293.88 240.843 292.792 239.163 292.792ZM247.788 292.792C246.86 292.792 246.108 293.112 245.644 293.752C245.612 293.816 245.564 293.768 245.564 293.704V293.112C245.564 292.984 245.484 292.904 245.356 292.904H244.636C244.508 292.904 244.428 292.984 244.428 293.112V300.792C244.428 300.92 244.508 301 244.636 301H245.356C245.484 301 245.564 300.92 245.564 300.792V295.464C245.676 294.456 246.444 293.784 247.532 293.784C248.668 293.784 249.436 294.6 249.436 295.784V300.792C249.436 300.92 249.516 301 249.644 301H250.364C250.492 301 250.572 300.92 250.572 300.792V295.56C250.572 293.88 249.468 292.792 247.788 292.792ZM256.205 300.152C255.037 300.152 254.253 299.512 254.029 298.584C253.965 298.344 253.933 297.944 253.933 297.416C253.933 297.368 253.965 297.336 254.013 297.336H259.133C259.261 297.336 259.341 297.256 259.341 297.128C259.341 296.376 259.325 295.96 259.245 295.528C258.957 293.848 257.949 292.776 256.045 292.776C254.461 292.776 253.309 293.688 252.957 295.064C252.829 295.56 252.813 296.104 252.813 296.92C252.813 297.816 252.893 298.536 253.117 299.128C253.549 300.36 254.589 301.128 256.109 301.128C257.549 301.128 258.589 300.424 259.085 299.384C259.149 299.272 259.101 299.176 258.989 299.112L258.525 298.856C258.413 298.792 258.301 298.84 258.253 298.952C257.885 299.672 257.197 300.136 256.205 300.152ZM256.045 293.768C257.149 293.768 257.885 294.408 258.109 295.336C258.157 295.56 258.189 295.928 258.205 296.36C258.205 296.408 258.173 296.44 258.125 296.44H254.013C253.965 296.44 253.933 296.408 253.933 296.36C253.949 295.896 253.981 295.528 254.061 295.272C254.269 294.392 254.957 293.768 256.045 293.768ZM264.256 301.08C266.064 301.08 267.232 300.168 267.232 298.792C267.232 297.208 265.68 296.776 264.32 296.392C263.232 296.072 262.368 295.784 262.368 294.984C262.368 294.216 263.104 293.752 264.176 293.752C265.376 293.752 266.096 294.328 266.096 295.032V295.128C266.096 295.192 266.176 295.24 266.304 295.24H266.96C267.088 295.24 267.168 295.16 267.168 295.032C267.168 293.768 265.984 292.824 264.192 292.824C262.464 292.824 261.264 293.688 261.264 295.064C261.264 296.584 262.736 297.048 264.112 297.448C265.168 297.768 266.096 298.008 266.096 298.872C266.096 299.624 265.36 300.2 264.24 300.2C263.088 300.2 262.32 299.56 262.32 298.888V298.744C262.32 298.664 262.24 298.6 262.112 298.6H261.424C261.296 298.6 261.216 298.68 261.216 298.808V298.952C261.216 300.12 262.416 301.08 264.256 301.08ZM271.741 301.08C273.549 301.08 274.717 300.168 274.717 298.792C274.717 297.208 273.165 296.776 271.805 296.392C270.717 296.072 269.853 295.784 269.853 294.984C269.853 294.216 270.589 293.752 271.661 293.752C272.861 293.752 273.581 294.328 273.581 295.032V295.128C273.581 295.192 273.661 295.24 273.789 295.24H274.445C274.573 295.24 274.653 295.16 274.653 295.032C274.653 293.768 273.469 292.824 271.677 292.824C269.949 292.824 268.749 293.688 268.749 295.064C268.749 296.584 270.221 297.048 271.597 297.448C272.653 297.768 273.581 298.008 273.581 298.872C273.581 299.624 272.845 300.2 271.725 300.2C270.573 300.2 269.805 299.56 269.805 298.888V298.744C269.805 298.664 269.725 298.6 269.597 298.6H268.909C268.781 298.6 268.701 298.68 268.701 298.808V298.952C268.701 300.12 269.901 301.08 271.741 301.08ZM278.227 295.384C278.787 295.384 279.235 294.968 279.235 294.44C279.235 293.912 278.755 293.496 278.227 293.496C277.715 293.496 277.251 293.912 277.251 294.44C277.251 294.968 277.667 295.384 278.227 295.384ZM278.227 300.776C278.787 300.776 279.235 300.344 279.235 299.816C279.235 299.288 278.755 298.872 278.227 298.872C277.715 298.872 277.251 299.288 277.251 299.816C277.251 300.344 277.667 300.776 278.227 300.776ZM139.053 319.112V319.656C139.053 319.72 139.005 319.752 138.957 319.688C138.493 319.128 137.789 318.776 136.813 318.776C135.373 318.776 134.333 319.656 133.965 320.904C133.789 321.448 133.757 322.12 133.757 322.952C133.757 323.736 133.805 324.408 133.949 324.904C134.333 326.312 135.549 327.048 136.877 327.048C137.869 327.048 138.525 326.664 138.957 326.104C139.005 326.04 139.053 326.072 139.053 326.136V326.696C139.053 328.488 138.093 329.208 135.837 329.112C135.709 329.096 135.629 329.16 135.629 329.304L135.597 329.944C135.597 330.088 135.661 330.152 135.805 330.168C138.317 330.312 140.189 329.432 140.189 326.728V319.112C140.189 318.984 140.109 318.904 139.981 318.904H139.261C139.133 318.904 139.053 318.984 139.053 319.112ZM138.973 324.552C138.813 325.384 138.157 326.088 137.053 326.088C135.997 326.088 135.261 325.4 135.053 324.536C134.973 324.312 134.893 323.8 134.893 322.92C134.893 322.056 134.957 321.624 135.053 321.32C135.309 320.456 135.997 319.768 137.053 319.768C138.109 319.768 138.797 320.456 138.957 321.32C139.037 321.64 139.053 321.832 139.053 322.936C139.053 324.04 139.037 324.248 138.973 324.552ZM147.52 319.112V324.136C147.52 325.32 146.752 326.12 145.536 326.12C144.352 326.12 143.632 325.336 143.632 324.136V319.112C143.632 318.984 143.552 318.904 143.424 318.904H142.704C142.576 318.904 142.496 318.984 142.496 319.112V324.472C142.496 326.184 143.792 327.112 145.312 327.112C146.288 327.112 146.992 326.76 147.424 326.152C147.472 326.088 147.52 326.12 147.52 326.184V326.792C147.52 326.92 147.6 327 147.728 327H148.448C148.576 327 148.656 326.92 148.656 326.792V319.112C148.656 318.984 148.576 318.904 148.448 318.904H147.728C147.6 318.904 147.52 318.984 147.52 319.112ZM154.002 318.776C152.354 318.776 151.17 319.576 150.962 320.744C150.946 320.856 151.026 320.904 151.154 320.92L151.938 321.016C152.066 321.032 152.146 320.984 152.178 320.856C152.354 320.184 153.01 319.768 154.018 319.768C155.346 319.768 155.89 320.488 155.89 321.528V322.12C155.89 322.168 155.858 322.2 155.81 322.2H153.954C151.874 322.2 150.658 323.192 150.658 324.792C150.658 326.472 151.938 327.128 153.298 327.128C154.306 327.128 155.202 326.808 155.794 326.184C155.842 326.12 155.89 326.152 155.89 326.216V326.792C155.89 326.92 155.97 327 156.098 327H156.818C156.946 327 157.026 326.92 157.026 326.792V321.464C157.026 319.88 155.954 318.776 154.002 318.776ZM153.554 326.152C152.578 326.152 151.794 325.704 151.794 324.728C151.794 323.688 152.738 323.096 154.13 323.096H155.81C155.858 323.096 155.89 323.128 155.89 323.176V324.408C155.89 325.528 154.738 326.152 153.554 326.152ZM162.638 318.824C161.71 318.824 161.022 319.304 160.59 320.04C160.558 320.104 160.51 320.088 160.51 320.008V319.112C160.51 318.984 160.43 318.904 160.302 318.904H159.582C159.454 318.904 159.374 318.984 159.374 319.112V326.792C159.374 326.92 159.454 327 159.582 327H160.302C160.43 327 160.51 326.92 160.51 326.792V322.12C160.51 320.92 161.326 320.056 162.43 320.024C162.766 320.008 163.022 320.04 163.214 320.104C163.358 320.152 163.438 320.104 163.47 319.976L163.63 319.272C163.662 319.16 163.63 319.064 163.518 319.016C163.31 318.904 163.038 318.824 162.638 318.824ZM167.971 318.776C166.323 318.776 165.139 319.576 164.931 320.744C164.915 320.856 164.995 320.904 165.123 320.92L165.907 321.016C166.035 321.032 166.115 320.984 166.147 320.856C166.323 320.184 166.979 319.768 167.987 319.768C169.315 319.768 169.859 320.488 169.859 321.528V322.12C169.859 322.168 169.827 322.2 169.779 322.2H167.923C165.843 322.2 164.627 323.192 164.627 324.792C164.627 326.472 165.907 327.128 167.267 327.128C168.275 327.128 169.171 326.808 169.763 326.184C169.811 326.12 169.859 326.152 169.859 326.216V326.792C169.859 326.92 169.939 327 170.067 327H170.787C170.915 327 170.995 326.92 170.995 326.792V321.464C170.995 319.88 169.923 318.776 167.971 318.776ZM167.523 326.152C166.547 326.152 165.763 325.704 165.763 324.728C165.763 323.688 166.707 323.096 168.099 323.096H169.779C169.827 323.096 169.859 323.128 169.859 323.176V324.408C169.859 325.528 168.707 326.152 167.523 326.152ZM176.703 318.792C175.775 318.792 175.023 319.112 174.559 319.752C174.527 319.816 174.479 319.768 174.479 319.704V319.112C174.479 318.984 174.399 318.904 174.271 318.904H173.551C173.423 318.904 173.343 318.984 173.343 319.112V326.792C173.343 326.92 173.423 327 173.551 327H174.271C174.399 327 174.479 326.92 174.479 326.792V321.464C174.591 320.456 175.359 319.784 176.447 319.784C177.583 319.784 178.351 320.6 178.351 321.784V326.792C178.351 326.92 178.431 327 178.559 327H179.279C179.407 327 179.487 326.92 179.487 326.792V321.56C179.487 319.88 178.383 318.792 176.703 318.792ZM185.6 319.64V319.112C185.6 318.984 185.52 318.904 185.391 318.904H183.648C183.6 318.904 183.568 318.872 183.568 318.824V317.032C183.568 316.904 183.488 316.824 183.36 316.824H182.672C182.544 316.824 182.464 316.904 182.464 317.032V318.824C182.464 318.872 182.432 318.904 182.384 318.904H181.472C181.344 318.904 181.264 318.984 181.264 319.112V319.64C181.264 319.768 181.344 319.848 181.472 319.848H182.384C182.432 319.848 182.464 319.88 182.464 319.928V324.952C182.464 326.616 183.408 326.984 184.799 326.984H185.344C185.488 326.968 185.552 326.888 185.552 326.76V326.2C185.552 326.072 185.472 325.992 185.344 325.992H184.992C184.032 325.992 183.568 325.64 183.568 324.6V319.928C183.568 319.88 183.6 319.848 183.648 319.848H185.391C185.52 319.848 185.6 319.768 185.6 319.64ZM190.713 326.152C189.545 326.152 188.761 325.512 188.537 324.584C188.473 324.344 188.441 323.944 188.441 323.416C188.441 323.368 188.473 323.336 188.521 323.336H193.641C193.769 323.336 193.849 323.256 193.849 323.128C193.849 322.376 193.833 321.96 193.753 321.528C193.465 319.848 192.457 318.776 190.553 318.776C188.969 318.776 187.817 319.688 187.465 321.064C187.337 321.56 187.321 322.104 187.321 322.92C187.321 323.816 187.401 324.536 187.625 325.128C188.057 326.36 189.097 327.128 190.617 327.128C192.057 327.128 193.097 326.424 193.593 325.384C193.657 325.272 193.609 325.176 193.497 325.112L193.033 324.856C192.921 324.792 192.809 324.84 192.761 324.952C192.393 325.672 191.705 326.136 190.713 326.152ZM190.553 319.768C191.657 319.768 192.393 320.408 192.617 321.336C192.665 321.56 192.697 321.928 192.713 322.36C192.713 322.408 192.681 322.44 192.633 322.44H188.521C188.473 322.44 188.441 322.408 188.441 322.36C188.457 321.896 188.489 321.528 188.569 321.272C188.777 320.392 189.465 319.768 190.553 319.768ZM199.26 326.152C198.092 326.152 197.308 325.512 197.084 324.584C197.02 324.344 196.988 323.944 196.988 323.416C196.988 323.368 197.02 323.336 197.068 323.336H202.188C202.316 323.336 202.396 323.256 202.396 323.128C202.396 322.376 202.38 321.96 202.3 321.528C202.012 319.848 201.004 318.776 199.1 318.776C197.516 318.776 196.364 319.688 196.012 321.064C195.884 321.56 195.868 322.104 195.868 322.92C195.868 323.816 195.948 324.536 196.172 325.128C196.604 326.36 197.644 327.128 199.164 327.128C200.604 327.128 201.644 326.424 202.14 325.384C202.204 325.272 202.156 325.176 202.044 325.112L201.58 324.856C201.468 324.792 201.356 324.84 201.308 324.952C200.94 325.672 200.252 326.136 199.26 326.152ZM199.1 319.768C200.204 319.768 200.94 320.408 201.164 321.336C201.212 321.56 201.244 321.928 201.26 322.36C201.26 322.408 201.228 322.44 201.18 322.44H197.068C197.02 322.44 196.988 322.408 196.988 322.36C197.004 321.896 197.036 321.528 197.116 321.272C197.324 320.392 198.012 319.768 199.1 319.768ZM209.631 316.008V319.704C209.631 319.768 209.583 319.8 209.535 319.736C209.071 319.128 208.351 318.776 207.503 318.776C205.951 318.776 204.927 319.64 204.543 320.968C204.383 321.512 204.351 322.168 204.351 322.952C204.351 323.768 204.399 324.424 204.575 324.984C204.959 326.28 205.983 327.128 207.503 327.128C208.351 327.128 209.071 326.776 209.535 326.152C209.583 326.104 209.631 326.12 209.631 326.184V326.792C209.631 326.92 209.711 327 209.839 327H210.559C210.687 327 210.767 326.92 210.767 326.792V316.008C210.767 315.88 210.687 315.8 210.559 315.8H209.839C209.711 315.8 209.631 315.88 209.631 316.008ZM209.327 324.904C209.071 325.624 208.495 326.136 207.615 326.136C206.719 326.136 206.031 325.656 205.775 324.888C205.583 324.456 205.487 323.992 205.487 322.952C205.487 321.848 205.615 321.368 205.855 320.936C206.127 320.248 206.767 319.768 207.631 319.768C208.479 319.768 209.055 320.264 209.311 320.968C209.503 321.4 209.599 321.88 209.599 322.952C209.599 324.008 209.519 324.488 209.327 324.904ZM213.988 326.952C214.532 326.952 214.98 326.536 214.98 326.008C214.98 325.48 214.5 325.064 213.988 325.064C213.46 325.064 212.996 325.48 212.996 326.008C212.996 326.536 213.412 326.952 213.988 326.952Z" fill="#FEFCF7"/>
<path fill-rule="evenodd" clip-rule="evenodd" d="M140.846 83H145V87.1667H140.846V83ZM136 102.444H140.154V106.611H136V102.444ZM152.434 87.2292H149.127V83H184.462V118.397C182.297 120.261 180.9 122.996 180.81 126.056H163.05C162.885 120.409 158.263 115.866 152.602 115.866C146.94 115.866 142.319 120.409 142.153 126.056H136V112.12H147.769C149.273 112.12 150.496 110.892 150.496 109.381C150.496 107.871 149.273 106.643 147.769 106.643H144.345V102.413H162.266C163.769 102.413 164.993 101.185 164.993 99.6746C164.993 98.1644 163.769 96.9358 162.266 96.9358H136V92.7067H152.602C154.105 92.7067 155.328 91.4782 155.328 89.968C155.328 88.509 153.976 87.2292 152.434 87.2292ZM185.154 126.75C185.154 123.304 187.949 120.5 191.385 120.5C194.82 120.5 197.615 123.304 197.615 126.75C197.615 130.196 194.82 133 191.385 133C187.949 133 185.154 130.196 185.154 126.75ZM189.284 128.857H193.485V124.643H189.284V128.857ZM188.615 87.8611H197.062L206.615 102.444H188.615V87.8611ZM188.615 106.611V116.175C189.451 115.963 190.327 115.849 191.228 115.849C196.948 115.849 201.617 120.4 201.784 126.056H208V106.611H188.615ZM152.615 120.5C149.18 120.5 146.385 123.304 146.385 126.75C146.385 130.196 149.18 133 152.615 133C156.051 133 158.846 130.196 158.846 126.75C158.846 123.304 156.051 120.5 152.615 120.5ZM154.716 128.857H150.515V124.643H154.716V128.857Z" fill="#FDD6BA"/>
</svg>
